<svg width="30" height="30" viewBox="0 0 30 30" fill="none" xmlns="http://www.w3.org/2000/svg">
<g clip-path="url(#clip0_34_43)">
<path d="M1.83356 26.6955L4.76991 29.6319C5.26069 30.1227 6.05651 30.1227 6.54734 29.6319C7.03818 29.141 7.03818 28.3452 6.54734 27.8544L4.49962 25.8068L5.22969 25.0767L6.06037 25.9074C6.55103 26.3982 7.34697 26.3982 7.8378 25.9074C8.32864 25.4166 8.32864 24.6208 7.8378 24.1299L7.00713 23.2993L7.7372 22.5692L9.78486 24.6169C10.2756 25.1076 11.0715 25.1076 11.5623 24.6169C12.0531 24.126 12.0531 23.3303 11.5623 22.8393L9.51463 20.7916L15.7235 14.5828C18.8755 16.8785 23.3283 16.6059 26.1705 13.7638C29.3223 10.612 29.3226 5.51067 26.1705 2.3584C23.0262 -0.785899 17.9097 -0.786135 14.7651 2.35846C11.9231 5.20059 11.6505 9.65345 13.9461 12.8054L1.83338 24.918C1.34308 25.4085 1.34272 26.2048 1.83356 26.6955ZM16.5426 4.136C18.707 1.97156 22.2287 1.97162 24.3931 4.136C26.5626 6.30531 26.5627 9.81681 24.3931 11.9863C22.2288 14.1507 18.707 14.1508 16.5427 11.9863C14.3784 9.82208 14.3784 6.30039 16.5426 4.136Z" fill="black"/>
</g>
<defs>
<clipPath id="clip0_34_43">
<rect width="30" height="30" fill="white" transform="translate(30 30) rotate(-180)"/>
</clipPath>
</defs>
</svg>
