<svg width="49" height="49" viewBox="0 0 49 49" fill="none" xmlns="http://www.w3.org/2000/svg">
<g clip-path="url(#clip0_23_256)">
<path d="M43.3251 16.3678L43.9089 18.1531C45.275 22.3385 45.2516 26.8534 43.8422 31.0244C42.4327 35.1953 39.7127 38.799 36.0878 41.2978C32.463 43.7966 28.1275 45.0568 23.7279 44.8903C19.3284 44.7238 15.1005 43.1396 11.6749 40.374C8.24925 37.6083 5.80938 33.8094 4.71918 29.5438C3.62897 25.2783 3.94683 20.7745 5.62535 16.7044C7.30388 12.6342 10.2531 9.21566 14.0333 6.95858C17.8134 4.70151 22.2218 3.72685 26.6012 4.17995" fill="#CAFF74"/>
<path d="M43.3251 16.3678L43.9089 18.1531C45.275 22.3385 45.2516 26.8534 43.8422 31.0243C42.4327 35.1953 39.7127 38.799 36.0878 41.2978C32.463 43.7966 28.1275 45.0568 23.7279 44.8903C19.3284 44.7238 15.1005 43.1396 11.6749 40.374C8.24925 37.6083 5.80938 33.8094 4.71918 29.5438C3.62897 25.2783 3.94683 20.7745 5.62535 16.7044C7.30388 12.6342 10.2531 9.21566 14.0333 6.95858C17.8134 4.70151 22.2218 3.72685 26.6012 4.17995" stroke="black" stroke-width="4.08333" stroke-linecap="round" stroke-linejoin="round"/>
<path d="M10.4743 9.53487L11.9556 8.37994C15.4293 5.67484 19.6843 4.16508 24.0861 4.07582C28.4879 3.98655 32.8006 5.32258 36.3811 7.88463C39.9615 10.4467 42.6178 14.0975 43.9539 18.2926C45.29 22.4876 45.2342 27.0022 43.7948 31.163C42.3555 35.3237 39.6097 38.9078 35.967 41.3805C32.3243 43.8533 27.9799 45.0823 23.5817 44.8843C19.1834 44.6862 14.967 43.0718 11.5613 40.2816C8.1556 37.4915 5.74305 33.6752 4.68346 29.4019" stroke="black" stroke-width="4.08333" stroke-linecap="round" stroke-linejoin="round"/>
<path d="M44.9167 8.16663L24.5 28.6037L18.375 22.4787" stroke="black" stroke-width="4.08333" stroke-linecap="round" stroke-linejoin="round"/>
</g>
<defs>
<clipPath id="clip0_23_256">
<rect width="49" height="49" fill="white"/>
</clipPath>
</defs>
</svg>
