<svg width="51" height="51" viewBox="0 0 51 51" fill="none" xmlns="http://www.w3.org/2000/svg">
<path d="M25.5 46.75C37.236 46.75 46.75 37.236 46.75 25.5C46.75 13.7639 37.236 4.25 25.5 4.25C13.7639 4.25 4.25 13.7639 4.25 25.5C4.25 37.236 13.7639 46.75 25.5 46.75Z" fill="#FFF961" stroke="black" stroke-width="4.25" stroke-linecap="round" stroke-linejoin="round"/>
<path d="M22.6122 31.5178V31.1946C22.6205 29.6948 22.7614 28.5017 23.0348 27.6151C23.3165 26.7285 23.7143 26.0159 24.228 25.4773C24.7417 24.9304 25.3673 24.4291 26.1048 23.9734C26.6102 23.6585 27.0618 23.3146 27.4595 22.9418C27.8655 22.5606 28.1845 22.138 28.4165 21.674C28.6486 21.2017 28.7646 20.6755 28.7646 20.0955C28.7646 19.4409 28.6113 18.8733 28.3047 18.3928C27.9981 17.9122 27.5838 17.5393 27.0618 17.2741C26.5481 17.009 25.9722 16.8764 25.3342 16.8764C24.7459 16.8764 24.1866 17.0049 23.6562 17.2617C23.1342 17.5103 22.6992 17.8915 22.3512 18.4052C22.0115 18.9106 21.8209 19.5528 21.7795 20.3317H17.3548C17.3962 18.7573 17.7773 17.4399 18.4982 16.3793C19.2274 15.3187 20.1886 14.5232 21.3817 13.9929C22.5832 13.4626 23.909 13.1974 25.359 13.1974C26.9416 13.1974 28.3337 13.475 29.5352 14.0302C30.7449 14.5853 31.6854 15.3767 32.3565 16.4041C33.036 17.4233 33.3757 18.633 33.3757 20.0334C33.3757 20.978 33.2224 21.8232 32.9158 22.5689C32.6175 23.3146 32.1908 23.9775 31.6357 24.5575C31.0805 25.1375 30.4218 25.6554 29.6594 26.1112C28.9883 26.5254 28.4373 26.9563 28.0064 27.4038C27.5838 27.8512 27.2689 28.3774 27.0618 28.9822C26.8629 29.5788 26.7594 30.3163 26.7511 31.1946V31.5178H22.6122ZM24.7749 39.2734C24.0291 39.2734 23.387 39.0083 22.8484 38.478C22.3098 37.9477 22.0405 37.3014 22.0405 36.5391C22.0405 35.7933 22.3098 35.1553 22.8484 34.625C23.387 34.0947 24.0291 33.8295 24.7749 33.8295C25.5123 33.8295 26.1503 34.0947 26.6889 34.625C27.2358 35.1553 27.5092 35.7933 27.5092 36.5391C27.5092 37.0445 27.3808 37.5044 27.1239 37.9187C26.8754 38.333 26.5439 38.6644 26.1296 38.913C25.7236 39.1533 25.272 39.2734 24.7749 39.2734Z" fill="black"/>
</svg>
