<svg width="337" height="323" viewBox="0 0 337 323" fill="none" xmlns="http://www.w3.org/2000/svg">
<path d="M306 15.6667L275.333 46.3334M275.333 46.3334L321.333 92.3334L267.667 146L221.667 100M275.333 46.3334L221.667 100M158.647 163.02C166.564 170.832 172.858 180.133 177.166 190.387C181.473 200.641 183.71 211.646 183.748 222.768C183.785 233.891 181.622 244.911 177.383 255.193C173.144 265.476 166.912 274.819 159.048 282.684C151.183 290.548 141.84 296.78 131.557 301.019C121.274 305.258 110.255 307.421 99.1323 307.384C88.01 307.347 77.0049 305.11 66.7507 300.802C56.4965 296.494 47.1958 290.2 39.3839 282.283C24.0219 266.377 15.5216 245.075 15.7138 222.963C15.9059 200.851 24.7752 179.699 40.4112 164.063C56.0473 148.427 77.1992 139.557 99.3111 139.365C121.423 139.173 142.726 147.673 158.631 163.035L158.647 163.02ZM158.647 163.02L221.667 100" stroke="#D6C5A4" stroke-width="30.6667" stroke-linecap="round" stroke-linejoin="round"/>
</svg>
