<svg width="360" height="800" viewBox="0 0 360 800" fill="none" xmlns="http://www.w3.org/2000/svg">
<g clip-path="url(#clip0_32_12)">
<rect width="360" height="800" fill="#FFEAC1"/>
<g opacity="0.2">
<path d="M347 536.667L316.333 567.333M316.333 567.333L362.333 613.333L308.667 667L262.667 621M316.333 567.333L262.667 621M199.647 684.02C207.564 691.832 213.858 701.133 218.166 711.387C222.474 721.641 224.711 732.646 224.748 743.768C224.785 754.891 222.622 765.911 218.383 776.193C214.144 786.476 207.912 795.819 200.048 803.684C192.183 811.548 182.84 817.78 172.557 822.019C162.274 826.258 151.255 828.421 140.132 828.384C129.01 828.347 118.005 826.11 107.751 821.802C97.4966 817.494 88.1958 811.2 80.384 803.283C65.022 787.377 56.5217 766.075 56.7138 743.963C56.906 721.851 65.7752 700.699 81.4113 685.063C97.0474 669.427 118.199 660.557 140.311 660.365C162.423 660.173 183.726 668.673 199.631 684.035L199.647 684.02ZM199.647 684.02L262.667 621" stroke="url(#paint0_linear_32_12)" stroke-width="30.6667" stroke-linecap="round" stroke-linejoin="round"/>
</g>
</g>
<defs>
<linearGradient id="paint0_linear_32_12" x1="209.522" y1="536.667" x2="209.522" y2="828.384" gradientUnits="userSpaceOnUse">
<stop/>
<stop offset="1" stop-color="#424242"/>
</linearGradient>
<clipPath id="clip0_32_12">
<rect width="360" height="800" fill="white"/>
</clipPath>
</defs>
</svg>
