<svg width="37" height="37" viewBox="0 0 37 37" fill="none" xmlns="http://www.w3.org/2000/svg">
<g clip-path="url(#clip0_23_102)">
<path d="M27.0407 30.9061C26.7988 31.4761 26.3403 31.9266 25.7662 32.1585C25.1922 32.3905 24.5494 32.3849 23.9795 32.1429L4.63821 23.933C4.06825 23.6911 3.61774 23.2327 3.38579 22.6586C3.15385 22.0845 3.15945 21.4418 3.40139 20.8718L8.41854 9.05214C8.66047 8.48218 9.11891 8.03167 9.693 7.79973C10.2671 7.56778 10.9098 7.57339 11.4798 7.81532L15.7778 9.63974L19.2952 7.3284L25.7423 10.065L26.523 14.2008L30.821 16.0252C31.391 16.2671 31.8415 16.7256 32.0735 17.2997C32.3054 17.8738 32.2998 18.5165 32.0579 19.0864L27.0407 30.9061Z" stroke="black" stroke-width="2.33462" stroke-linecap="round" stroke-linejoin="round"/>
<path d="M16.1333 23.74C18.507 24.7476 21.2481 23.6401 22.2557 21.2664C23.2633 18.8926 22.1558 16.1515 19.7821 15.1439C17.4083 14.1363 14.6672 15.2438 13.6596 17.6175C12.652 19.9913 13.7595 22.7324 16.1333 23.74Z" stroke="black" stroke-width="2.33462" stroke-linecap="round" stroke-linejoin="round"/>
</g>
<defs>
<clipPath id="clip0_23_102">
<rect width="28.0154" height="28.0154" fill="white" transform="translate(10.9929) rotate(23)"/>
</clipPath>
</defs>
</svg>
