<svg width="58" height="58" viewBox="0 0 58 58" fill="none" xmlns="http://www.w3.org/2000/svg">
<path d="M24.8675 9.32822L4.39833 43.4999C3.97631 44.2307 3.753 45.0594 3.75064 45.9033C3.74828 46.7473 3.96694 47.5771 4.38486 48.3103C4.80279 49.0435 5.40542 49.6545 6.13279 50.0825C6.86017 50.5105 7.68693 50.7406 8.53083 50.7499H49.4692C50.3131 50.7406 51.1398 50.5105 51.8672 50.0825C52.5946 49.6545 53.1972 49.0435 53.6151 48.3103C54.0331 47.5771 54.2517 46.7473 54.2494 45.9033C54.247 45.0594 54.0237 44.2307 53.6017 43.4999L33.1325 9.32822C32.7017 8.61798 32.0951 8.03076 31.3712 7.62322C30.6474 7.21568 29.8307 7.00159 29 7.00159C28.1693 7.00159 27.3526 7.21568 26.6288 7.62322C25.9049 8.03076 25.2983 8.61798 24.8675 9.32822Z" fill="#FFF961" stroke="black" stroke-width="3.5" stroke-linecap="round" stroke-linejoin="round"/>
<path d="M29 21.75V31.4167" stroke="black" stroke-width="4.83333" stroke-linecap="round" stroke-linejoin="round"/>
<path d="M29 41.0834H29.0233" stroke="black" stroke-width="4.83333" stroke-linecap="round" stroke-linejoin="round"/>
</svg>
