<svg width="40" height="40" viewBox="0 0 40 40" fill="none" xmlns="http://www.w3.org/2000/svg">
<g clip-path="url(#clip0_85_35)">
<path d="M16.5643 23.7826L20.5448 14.405L16.2833 16.1267L15.3806 13.7745L23.5759 10.4635L26.8869 18.6587L24.5679 19.6433L22.8461 15.3818L18.8655 24.7595L16.5643 23.7826ZM8.85745 25.9431C8.2246 25.6744 7.77849 25.2192 7.51912 24.5772C7.25976 23.9352 7.26439 23.2978 7.53301 22.665L8.99825 19.2131L11.2995 20.1899L9.83428 23.6418L23.6418 29.5028L25.1071 26.0509L27.4084 27.0277L25.9431 30.4796C25.6745 31.1125 25.2192 31.5586 24.5772 31.8179C23.9353 32.0773 23.2979 32.0727 22.665 31.804L8.85745 25.9431Z" fill="black"/>
</g>
<defs>
<clipPath id="clip0_85_35">
<rect width="30" height="30" fill="white" transform="translate(11.7219) rotate(23)"/>
</clipPath>
</defs>
</svg>
