<svg width="70" height="70" viewBox="0 0 70 70" fill="none" xmlns="http://www.w3.org/2000/svg">
<mask id="path-1-inside-1_60_155" fill="white">
<path fill-rule="evenodd" clip-rule="evenodd" d="M0 4.85714C0 2.17462 2.17462 0 4.85714 0H65.1429C67.8254 0 70 2.17462 70 4.85714V65.1429C70 67.8254 67.8254 70 65.1429 70H43.3782L43.3784 69.9983L43.3784 60.6379H44.2676C44.6135 60.6379 44.948 60.5696 45.2661 60.4371C45.5868 60.3037 45.8679 60.1146 46.1126 59.8682C46.3575 59.6189 46.5458 59.3363 46.6807 59.0141C46.8131 58.6906 46.8778 58.354 46.8778 58.0068C46.8778 57.7151 46.9257 57.4316 47.0186 57.155C47.1114 56.88 47.2463 56.6251 47.4233 56.3934C47.601 56.1642 47.8116 55.9693 48.0536 55.8078C48.2957 55.6493 48.5571 55.5335 48.8383 55.4602C56.4023 53.5331 62 46.6313 62 38.4091C62 29.892 55.9917 22.7897 48.0087 21.1715C47.9271 21.1539 47.8595 21.1148 47.8061 21.0497C47.7556 20.985 47.7275 20.9108 47.7275 20.8258V20.8232C47.7275 13.7408 42.0282 8.00002 34.9987 8.00002C27.9692 8.00002 22.2702 13.7408 22.2702 20.8232V20.8258C22.2702 20.9108 22.245 20.985 22.1913 21.0497C22.1408 21.1148 22.0732 21.1539 21.992 21.1715C14.0115 22.7897 8 29.892 8 38.4091C8 46.6313 13.598 53.5331 21.162 55.4602C21.4432 55.5335 21.7047 55.6493 21.947 55.8078C22.1887 55.9693 22.3968 56.1642 22.5741 56.3934C22.7514 56.6251 22.8892 56.8777 22.9821 57.155C23.0746 57.4316 23.1225 57.7151 23.1225 58.0068C23.1225 58.3541 23.1872 58.6906 23.3193 59.0141C23.4516 59.3363 23.6402 59.6189 23.8848 59.8656C24.1295 60.1146 24.4139 60.3037 24.7316 60.4371C25.0523 60.5696 25.3868 60.6379 25.7331 60.6379H26.619V70H4.85714C2.17462 70 0 67.8254 0 65.1429V4.85714ZM40.9635 70H29.0105V58.2323H25.7331C25.7007 58.2323 25.6758 58.2265 25.646 58.2141C25.6192 58.2034 25.6007 58.19 25.58 58.1692C25.5577 58.1457 25.5425 58.1265 25.5305 58.0976C25.5179 58.0667 25.514 58.04 25.514 58.0068C25.514 57.4541 25.4237 56.9109 25.2484 56.3875C25.0707 55.856 24.8064 55.3645 24.466 54.9219C24.1272 54.4812 23.7227 54.103 23.26 53.797C22.7964 53.4904 22.288 53.2655 21.7496 53.1282C15.0631 51.4233 10.3915 45.3418 10.3915 38.4091C10.3915 31.1985 15.4433 24.9535 22.4647 23.5295C23.0931 23.402 23.6519 23.0622 24.0528 22.5596C24.4491 22.0672 24.6614 21.4605 24.6614 20.8258V20.8232C24.6614 15.0772 29.2813 10.4053 34.9987 10.4053C40.7161 10.4053 45.336 15.0772 45.336 20.8232V20.8258C45.336 21.4497 45.5437 22.0473 45.9268 22.5372L45.9427 22.557L45.9592 22.5779C46.362 23.0703 46.915 23.4036 47.5359 23.5295C54.5589 24.9535 59.6085 31.1978 59.6085 38.4091C59.6085 45.3418 54.9372 51.4233 48.2507 53.1282C47.7126 53.2655 47.2043 53.4904 46.7403 53.797C46.2779 54.103 45.8702 54.4812 45.5318 54.9219C45.1927 55.3629 44.9309 55.8554 44.7533 56.3836C44.5766 56.9076 44.4863 57.4525 44.4863 58.0068C44.4863 58.0351 44.4844 58.0624 44.4731 58.0891C44.4588 58.1233 44.4436 58.1451 44.4171 58.1715C44.3967 58.1923 44.3786 58.2034 44.3517 58.2141C44.3232 58.2258 44.2983 58.2323 44.2676 58.2323H40.9869V69.8311L40.9635 70ZM34.7058 13.0046C29.9829 13.1489 26.1582 16.7703 26.0048 21.2227C25.9847 21.8015 26.0274 22.3819 26.1326 22.9532C26.237 23.5223 26.4047 24.0779 26.6273 24.6155C26.8524 25.1588 27.1378 25.6767 27.4766 26.164C27.8133 26.6481 28.1995 27.0964 28.6324 27.5061C29.0654 27.9168 29.5425 28.2814 30.0547 28.6005C30.5703 28.922 31.118 29.1899 31.692 29.4044C32.2653 29.618 32.8567 29.7761 33.4646 29.875C34.0683 29.9742 34.6819 30.0145 35.2945 29.9954C40.0187 29.8505 43.8459 26.2307 43.9954 21.7757C44.0149 21.1979 43.9722 20.6182 43.8677 20.0484C43.7629 19.4764 43.598 18.9173 43.3716 18.3771C43.1452 17.838 42.8638 17.3201 42.5261 16.8354C42.1884 16.3497 41.7988 15.8994 41.3637 15.4888C40.9308 15.0816 40.4551 14.7164 39.9442 14.3988C39.431 14.079 38.8847 13.8101 38.3131 13.5965C37.7404 13.3824 37.1469 13.2239 36.5398 13.125C35.9347 13.0262 35.3194 12.9856 34.7058 13.0046ZM28.5269 21.3C28.6369 18.0969 31.3976 15.4871 34.7877 15.3834C35.2299 15.3693 35.6725 15.4008 36.1085 15.4701C36.5449 15.5432 36.9697 15.6556 37.3822 15.8089C37.792 15.9629 38.1836 16.1535 38.5548 16.3861C38.926 16.6151 39.2675 16.8792 39.5792 17.1726C39.8937 17.4695 40.1727 17.791 40.4162 18.1414C40.6596 18.4908 40.8614 18.8638 41.025 19.2529C41.1879 19.6419 41.3067 20.0426 41.3808 20.4542C41.4583 20.8687 41.4877 21.2829 41.473 21.7C41.3661 24.9066 38.6023 27.5129 35.2125 27.6169C34.77 27.6308 34.3305 27.5995 33.8941 27.5293C33.455 27.4568 33.0333 27.3448 32.6208 27.1914C32.208 27.0372 31.8163 26.8465 31.4451 26.6143C31.0743 26.385 30.7325 26.1244 30.4211 25.8274C30.1062 25.5308 29.8303 25.2084 29.5868 24.8586C29.3434 24.5082 29.1385 24.1388 28.9783 23.7497C28.8151 23.3574 28.6963 22.9574 28.6188 22.5461C28.545 22.1339 28.5122 21.7174 28.5269 21.3Z"/>
</mask>
<path fill-rule="evenodd" clip-rule="evenodd" d="M0 4.85714C0 2.17462 2.17462 0 4.85714 0H65.1429C67.8254 0 70 2.17462 70 4.85714V65.1429C70 67.8254 67.8254 70 65.1429 70H43.3782L43.3784 69.9983L43.3784 60.6379H44.2676C44.6135 60.6379 44.948 60.5696 45.2661 60.4371C45.5868 60.3037 45.8679 60.1146 46.1126 59.8682C46.3575 59.6189 46.5458 59.3363 46.6807 59.0141C46.8131 58.6906 46.8778 58.354 46.8778 58.0068C46.8778 57.7151 46.9257 57.4316 47.0186 57.155C47.1114 56.88 47.2463 56.6251 47.4233 56.3934C47.601 56.1642 47.8116 55.9693 48.0536 55.8078C48.2957 55.6493 48.5571 55.5335 48.8383 55.4602C56.4023 53.5331 62 46.6313 62 38.4091C62 29.892 55.9917 22.7897 48.0087 21.1715C47.9271 21.1539 47.8595 21.1148 47.8061 21.0497C47.7556 20.985 47.7275 20.9108 47.7275 20.8258V20.8232C47.7275 13.7408 42.0282 8.00002 34.9987 8.00002C27.9692 8.00002 22.2702 13.7408 22.2702 20.8232V20.8258C22.2702 20.9108 22.245 20.985 22.1913 21.0497C22.1408 21.1148 22.0732 21.1539 21.992 21.1715C14.0115 22.7897 8 29.892 8 38.4091C8 46.6313 13.598 53.5331 21.162 55.4602C21.4432 55.5335 21.7047 55.6493 21.947 55.8078C22.1887 55.9693 22.3968 56.1642 22.5741 56.3934C22.7514 56.6251 22.8892 56.8777 22.9821 57.155C23.0746 57.4316 23.1225 57.7151 23.1225 58.0068C23.1225 58.3541 23.1872 58.6906 23.3193 59.0141C23.4516 59.3363 23.6402 59.6189 23.8848 59.8656C24.1295 60.1146 24.4139 60.3037 24.7316 60.4371C25.0523 60.5696 25.3868 60.6379 25.7331 60.6379H26.619V70H4.85714C2.17462 70 0 67.8254 0 65.1429V4.85714ZM40.9635 70H29.0105V58.2323H25.7331C25.7007 58.2323 25.6758 58.2265 25.646 58.2141C25.6192 58.2034 25.6007 58.19 25.58 58.1692C25.5577 58.1457 25.5425 58.1265 25.5305 58.0976C25.5179 58.0667 25.514 58.04 25.514 58.0068C25.514 57.4541 25.4237 56.9109 25.2484 56.3875C25.0707 55.856 24.8064 55.3645 24.466 54.9219C24.1272 54.4812 23.7227 54.103 23.26 53.797C22.7964 53.4904 22.288 53.2655 21.7496 53.1282C15.0631 51.4233 10.3915 45.3418 10.3915 38.4091C10.3915 31.1985 15.4433 24.9535 22.4647 23.5295C23.0931 23.402 23.6519 23.0622 24.0528 22.5596C24.4491 22.0672 24.6614 21.4605 24.6614 20.8258V20.8232C24.6614 15.0772 29.2813 10.4053 34.9987 10.4053C40.7161 10.4053 45.336 15.0772 45.336 20.8232V20.8258C45.336 21.4497 45.5437 22.0473 45.9268 22.5372L45.9427 22.557L45.9592 22.5779C46.362 23.0703 46.915 23.4036 47.5359 23.5295C54.5589 24.9535 59.6085 31.1978 59.6085 38.4091C59.6085 45.3418 54.9372 51.4233 48.2507 53.1282C47.7126 53.2655 47.2043 53.4904 46.7403 53.797C46.2779 54.103 45.8702 54.4812 45.5318 54.9219C45.1927 55.3629 44.9309 55.8554 44.7533 56.3836C44.5766 56.9076 44.4863 57.4525 44.4863 58.0068C44.4863 58.0351 44.4844 58.0624 44.4731 58.0891C44.4588 58.1233 44.4436 58.1451 44.4171 58.1715C44.3967 58.1923 44.3786 58.2034 44.3517 58.2141C44.3232 58.2258 44.2983 58.2323 44.2676 58.2323H40.9869V69.8311L40.9635 70ZM34.7058 13.0046C29.9829 13.1489 26.1582 16.7703 26.0048 21.2227C25.9847 21.8015 26.0274 22.3819 26.1326 22.9532C26.237 23.5223 26.4047 24.0779 26.6273 24.6155C26.8524 25.1588 27.1378 25.6767 27.4766 26.164C27.8133 26.6481 28.1995 27.0964 28.6324 27.5061C29.0654 27.9168 29.5425 28.2814 30.0547 28.6005C30.5703 28.922 31.118 29.1899 31.692 29.4044C32.2653 29.618 32.8567 29.7761 33.4646 29.875C34.0683 29.9742 34.6819 30.0145 35.2945 29.9954C40.0187 29.8505 43.8459 26.2307 43.9954 21.7757C44.0149 21.1979 43.9722 20.6182 43.8677 20.0484C43.7629 19.4764 43.598 18.9173 43.3716 18.3771C43.1452 17.838 42.8638 17.3201 42.5261 16.8354C42.1884 16.3497 41.7988 15.8994 41.3637 15.4888C40.9308 15.0816 40.4551 14.7164 39.9442 14.3988C39.431 14.079 38.8847 13.8101 38.3131 13.5965C37.7404 13.3824 37.1469 13.2239 36.5398 13.125C35.9347 13.0262 35.3194 12.9856 34.7058 13.0046ZM28.5269 21.3C28.6369 18.0969 31.3976 15.4871 34.7877 15.3834C35.2299 15.3693 35.6725 15.4008 36.1085 15.4701C36.5449 15.5432 36.9697 15.6556 37.3822 15.8089C37.792 15.9629 38.1836 16.1535 38.5548 16.3861C38.926 16.6151 39.2675 16.8792 39.5792 17.1726C39.8937 17.4695 40.1727 17.791 40.4162 18.1414C40.6596 18.4908 40.8614 18.8638 41.025 19.2529C41.1879 19.6419 41.3067 20.0426 41.3808 20.4542C41.4583 20.8687 41.4877 21.2829 41.473 21.7C41.3661 24.9066 38.6023 27.5129 35.2125 27.6169C34.77 27.6308 34.3305 27.5995 33.8941 27.5293C33.455 27.4568 33.0333 27.3448 32.6208 27.1914C32.208 27.0372 31.8163 26.8465 31.4451 26.6143C31.0743 26.385 30.7325 26.1244 30.4211 25.8274C30.1062 25.5308 29.8303 25.2084 29.5868 24.8586C29.3434 24.5082 29.1385 24.1388 28.9783 23.7497C28.8151 23.3574 28.6963 22.9574 28.6188 22.5461C28.545 22.1339 28.5122 21.7174 28.5269 21.3Z" fill="#FFDC97"/>
<path d="M43.3782 70L42.7046 69.9069L42.5977 70.68H43.3782V70ZM43.3784 69.9983L44.052 70.0915L44.0584 70.0451L44.0584 69.9983L43.3784 69.9983ZM43.3784 60.6379V59.9579H42.6984L42.6984 60.6379L43.3784 60.6379ZM45.2661 60.4371L45.0048 59.8093L45.0047 59.8094L45.2661 60.4371ZM46.1126 59.8682L46.5951 60.3473L46.5976 60.3447L46.1126 59.8682ZM46.6807 59.0141L47.308 59.2768L47.3101 59.2716L46.6807 59.0141ZM47.0186 57.155L46.3743 56.9375L46.3739 56.9386L47.0186 57.155ZM47.4233 56.3934L46.8859 55.9767L46.8829 55.9806L47.4233 56.3934ZM48.0536 55.8078L47.6811 55.239L47.6763 55.2421L48.0536 55.8078ZM48.8383 55.4602L48.6704 54.8013L48.6669 54.8022L48.8383 55.4602ZM62 38.4091L61.32 38.4091L61.32 38.4091L62 38.4091ZM48.0087 21.1715L47.8654 21.8362L47.8736 21.8379L48.0087 21.1715ZM47.8061 21.0497L47.2698 21.4677L47.275 21.4744L47.2803 21.481L47.8061 21.0497ZM22.2702 20.8232L22.9502 20.8232L22.9502 20.8232L22.2702 20.8232ZM22.1913 21.0497L21.6679 20.6157L21.6607 20.6242L21.6539 20.633L22.1913 21.0497ZM21.992 21.1715L22.1271 21.838L22.1358 21.8361L21.992 21.1715ZM8 38.4091L7.32 38.4091L7.32 38.4091L8 38.4091ZM21.162 55.4602L21.3334 54.8022L21.3299 54.8013L21.162 55.4602ZM21.947 55.8078L22.3247 55.2423L22.3192 55.2388L21.947 55.8078ZM22.5741 56.3934L23.1141 55.9802L23.1119 55.9772L22.5741 56.3934ZM22.9821 57.155L23.627 56.9393L23.6269 56.9391L22.9821 57.155ZM23.3193 59.0141L22.6896 59.271L22.6902 59.2725L23.3193 59.0141ZM23.8848 59.8656L24.3699 59.389L24.3677 59.3868L23.8848 59.8656ZM24.7316 60.4371L24.4683 61.0641L24.472 61.0656L24.7316 60.4371ZM26.619 60.6379H27.299V59.9579H26.619V60.6379ZM26.619 70V70.68H27.299V70H26.619ZM29.0105 70H28.3305V70.68H29.0105V70ZM40.9635 70V70.68H41.5555L41.637 70.0936L40.9635 70ZM29.0105 58.2323H29.6905V57.5523H29.0105V58.2323ZM25.646 58.2141L25.9069 57.5861L25.8986 57.5827L25.646 58.2141ZM25.58 58.1692L25.0876 58.6382L25.0927 58.6435L25.0978 58.6486L25.58 58.1692ZM25.5305 58.0976L24.9009 58.3545L24.9021 58.3573L25.5305 58.0976ZM25.2484 56.3875L24.6034 56.6031L24.6036 56.6036L25.2484 56.3875ZM24.466 54.9219L23.9269 55.3363L23.9269 55.3364L24.466 54.9219ZM23.26 53.797L22.885 54.3642L22.885 54.3642L23.26 53.797ZM21.7496 53.1282L21.9177 52.4693L21.9176 52.4693L21.7496 53.1282ZM10.3915 38.4091L11.0715 38.4091L11.0715 38.4091L10.3915 38.4091ZM22.4647 23.5295L22.5999 24.196L22.6 24.196L22.4647 23.5295ZM24.0528 22.5596L23.523 22.1332L23.5212 22.1356L24.0528 22.5596ZM34.9987 10.4053L34.9987 9.7253L34.9987 9.7253L34.9987 10.4053ZM45.9268 22.5372L45.3912 22.9561L45.3954 22.9615L45.9268 22.5372ZM45.9427 22.557L46.4757 22.1348L46.4741 22.1327L45.9427 22.557ZM45.9592 22.5779L45.4261 23.0002L45.4329 23.0084L45.9592 22.5779ZM47.5359 23.5295L47.4007 24.196L47.4008 24.196L47.5359 23.5295ZM59.6085 38.4091L58.9285 38.4091L58.9285 38.4091L59.6085 38.4091ZM48.2507 53.1282L48.0827 52.4693L48.0825 52.4693L48.2507 53.1282ZM46.7403 53.797L46.3654 53.2297L46.365 53.2299L46.7403 53.797ZM45.5318 54.9219L46.0708 55.3364L46.0711 55.3361L45.5318 54.9219ZM44.7533 56.3836L45.3976 56.6008L45.3978 56.6003L44.7533 56.3836ZM44.4731 58.0891L43.8471 57.8235L43.8453 57.8276L44.4731 58.0891ZM44.4171 58.1715L43.9377 57.6891L43.9311 57.6958L44.4171 58.1715ZM44.3517 58.2141L44.0992 57.5827L44.093 57.5852L44.3517 58.2141ZM40.9869 58.2323V57.5523H40.3069V58.2323H40.9869ZM40.9869 69.8311L41.6605 69.9246L41.6669 69.8781V69.8311H40.9869ZM26.0048 21.2227L26.6844 21.2464L26.6844 21.2461L26.0048 21.2227ZM34.7058 13.0046L34.7266 13.6843L34.7268 13.6842L34.7058 13.0046ZM26.1326 22.9532L26.8014 22.8304L26.8013 22.8301L26.1326 22.9532ZM26.6273 24.6155L27.2556 24.3553L27.2556 24.3553L26.6273 24.6155ZM27.4766 26.164L26.9182 26.5521L26.9183 26.5523L27.4766 26.164ZM28.6324 27.5061L29.1004 27.0127L29.0998 27.0122L28.6324 27.5061ZM30.0547 28.6005L30.4144 28.0235L30.4143 28.0234L30.0547 28.6005ZM31.692 29.4044L31.454 30.0414L31.4547 30.0417L31.692 29.4044ZM33.4646 29.875L33.5748 29.204L33.5737 29.2038L33.4646 29.875ZM35.2945 29.9954L35.2736 29.3158L35.2734 29.3158L35.2945 29.9954ZM43.9954 21.7757L43.3158 21.7528L43.3158 21.7529L43.9954 21.7757ZM43.8677 20.0484L43.1989 20.171L43.1989 20.1711L43.8677 20.0484ZM43.3716 18.3771L43.9987 18.1143L43.9985 18.1139L43.3716 18.3771ZM42.5261 16.8354L41.9678 17.2236L41.9681 17.2241L42.5261 16.8354ZM41.3637 15.4888L41.8305 14.9943L41.8295 14.9933L41.3637 15.4888ZM39.9442 14.3988L39.5846 14.976L39.5852 14.9763L39.9442 14.3988ZM38.3131 13.5965L38.0748 14.2335L38.0751 14.2336L38.3131 13.5965ZM36.5398 13.125L36.4301 13.7961L36.4305 13.7962L36.5398 13.125ZM34.7877 15.3834L34.8085 16.0631L34.8095 16.0631L34.7877 15.3834ZM28.5269 21.3L29.2065 21.3239L29.2065 21.3233L28.5269 21.3ZM36.1085 15.4701L36.2209 14.7994L36.2152 14.7985L36.1085 15.4701ZM37.3822 15.8089L37.6214 15.1723L37.6191 15.1715L37.3822 15.8089ZM38.5548 16.3861L38.1938 16.9623L38.1978 16.9648L38.5548 16.3861ZM39.5792 17.1726L40.0461 16.6782L40.0453 16.6774L39.5792 17.1726ZM40.4162 18.1414L39.8577 18.5294L39.8582 18.5301L40.4162 18.1414ZM41.025 19.2529L41.6522 18.9903L41.6519 18.9893L41.025 19.2529ZM41.3808 20.4542L40.7115 20.5747L40.7124 20.5792L41.3808 20.4542ZM41.473 21.7L40.7934 21.6761L40.7934 21.6774L41.473 21.7ZM35.2125 27.6169L35.1917 26.9372L35.1913 26.9372L35.2125 27.6169ZM33.8941 27.5293L33.7834 28.2002L33.7861 28.2007L33.8941 27.5293ZM32.6208 27.1914L32.3828 27.8284L32.3839 27.8288L32.6208 27.1914ZM31.4451 26.6143L31.8058 26.0378L31.8028 26.0359L31.4451 26.6143ZM30.4211 25.8274L30.8903 25.3353L30.8874 25.3325L30.4211 25.8274ZM29.5868 24.8586L29.0284 25.2466L29.0287 25.2471L29.5868 24.8586ZM28.9783 23.7497L29.6072 23.4909L29.6062 23.4885L28.9783 23.7497ZM28.6188 22.5461L27.9494 22.6659L27.9505 22.6721L28.6188 22.5461ZM4.85714 -0.68C1.79906 -0.68 -0.68 1.79906 -0.68 4.85714H0.68C0.68 2.55017 2.55017 0.68 4.85714 0.68V-0.68ZM65.1429 -0.68H4.85714V0.68H65.1429V-0.68ZM70.68 4.85714C70.68 1.79906 68.2009 -0.68 65.1429 -0.68V0.68C67.4498 0.68 69.32 2.55017 69.32 4.85714H70.68ZM70.68 65.1429V4.85714H69.32V65.1429H70.68ZM65.1429 70.68C68.2009 70.68 70.68 68.2009 70.68 65.1429H69.32C69.32 67.4498 67.4498 69.32 65.1429 69.32V70.68ZM43.3782 70.68H65.1429V69.32H43.3782V70.68ZM44.0518 70.0931L44.052 70.0915L42.7048 69.9052L42.7046 69.9069L44.0518 70.0931ZM44.0584 69.9983L44.0584 60.6379L42.6984 60.6379L42.6984 69.9983L44.0584 69.9983ZM43.3784 61.3179H44.2676V59.9579H43.3784V61.3179ZM44.2676 61.3179C44.705 61.3179 45.1283 61.2311 45.5276 61.0648L45.0047 59.8094C44.7678 59.908 44.522 59.9579 44.2676 59.9579V61.3179ZM45.5274 61.0649C45.931 60.8969 46.2874 60.6572 46.5951 60.3473L45.63 59.3891C45.4485 59.5719 45.2425 59.7104 45.0048 59.8093L45.5274 61.0649ZM46.5976 60.3447C46.9027 60.0343 47.1394 59.6793 47.308 59.2768L46.0535 58.7515C45.9522 58.9934 45.8123 59.2035 45.6275 59.3916L46.5976 60.3447ZM47.3101 59.2716C47.4765 58.8648 47.5578 58.4407 47.5578 58.0068H46.1978C46.1978 58.2674 46.1497 58.5164 46.0514 58.7567L47.3101 59.2716ZM47.5578 58.0068C47.5578 57.7912 47.5929 57.5807 47.6632 57.3714L46.3739 56.9386C46.2584 57.2826 46.1978 57.6391 46.1978 58.0068H47.5578ZM47.6628 57.3725C47.7322 57.1671 47.8322 56.9783 47.9637 56.8061L46.8829 55.9806C46.6604 56.2719 46.4906 56.5928 46.3743 56.9375L47.6628 57.3725ZM47.9608 56.81C48.0925 56.6401 48.2487 56.4951 48.431 56.3735L47.6763 55.2421C47.3745 55.4434 47.1094 55.6884 46.8859 55.9767L47.9608 56.81ZM48.4262 56.3767C48.6063 56.2588 48.7997 56.173 49.0097 56.1183L48.6669 54.8022C48.3145 54.894 47.9851 55.0399 47.6811 55.239L48.4262 56.3767ZM49.0062 56.1192C56.8673 54.1163 62.68 46.9465 62.68 38.4091L61.32 38.4091C61.32 46.3161 55.9373 52.9498 48.6704 54.8013L49.0062 56.1192ZM62.68 38.4091C62.68 29.5657 56.441 22.187 48.1438 20.505L47.8736 21.8379C55.5424 23.3925 61.32 30.2183 61.32 38.4091H62.68ZM48.152 20.5067C48.1756 20.5118 48.2086 20.5227 48.2446 20.5441C48.2811 20.5658 48.3104 20.5923 48.3319 20.6185L47.2803 21.481C47.4379 21.6731 47.6444 21.7886 47.8654 21.8362L48.152 20.5067ZM48.3425 20.6317C48.3574 20.6508 48.3748 20.679 48.388 20.7161C48.4015 20.7537 48.4075 20.7915 48.4075 20.8258H47.0475C47.0475 21.0743 47.1339 21.2935 47.2698 21.4677L48.3425 20.6317ZM48.4075 20.8258V20.8232H47.0475V20.8258H48.4075ZM48.4075 20.8232C48.4075 13.37 42.4084 7.32002 34.9987 7.32002V8.68002C41.6479 8.68002 47.0475 14.1116 47.0475 20.8232H48.4075ZM34.9987 7.32002C27.5889 7.32002 21.5902 13.37 21.5902 20.8232L22.9502 20.8232C22.9502 14.1116 28.3495 8.68002 34.9987 8.68002V7.32002ZM21.5902 20.8232V20.8258H22.9502V20.8232H21.5902ZM21.5902 20.8258C21.5902 20.7999 21.5943 20.763 21.609 20.721C21.6239 20.6784 21.6455 20.6427 21.6679 20.6157L22.7147 21.4838C22.8757 21.2897 22.9502 21.0595 22.9502 20.8258H21.5902ZM21.6539 20.633C21.6797 20.5997 21.7133 20.5694 21.7523 20.5459C21.7904 20.523 21.8247 20.5119 21.8481 20.5068L22.1358 21.8361C22.3538 21.7889 22.5687 21.6727 22.7287 21.4664L21.6539 20.633ZM21.8568 20.505C13.5623 22.187 7.32 29.5655 7.32 38.4091H8.68C8.68 30.2184 14.4607 23.3925 22.1271 21.8379L21.8568 20.505ZM7.32 38.4091C7.32 46.9465 13.1331 54.1163 20.9941 56.1192L21.3299 54.8013C14.063 52.9498 8.68 46.3161 8.68 38.4091L7.32 38.4091ZM20.9906 56.1183C21.2005 56.1729 21.3942 56.2588 21.5748 56.3769L22.3192 55.2388C22.0151 55.0399 21.6859 54.894 21.3334 54.8022L20.9906 56.1183ZM21.5693 56.3733C21.7491 56.4934 21.9033 56.6377 22.0363 56.8095L23.1119 55.9772C22.8902 55.6908 22.6283 55.4451 22.3247 55.2424L21.5693 56.3733ZM22.034 56.8066C22.169 56.983 22.2698 57.1695 22.3373 57.3709L23.6269 56.9391C23.5086 56.5859 23.3338 56.2673 23.1141 55.9802L22.034 56.8066ZM22.3372 57.3707C22.4074 57.5804 22.4425 57.7912 22.4425 58.0068H23.8025C23.8025 57.6391 23.7419 57.2829 23.627 56.9393L22.3372 57.3707ZM22.4425 58.0068C22.4425 58.4407 22.5238 58.8646 22.6896 59.271L23.9489 58.7572C23.8507 58.5166 23.8025 58.2674 23.8025 58.0068H22.4425ZM22.6902 59.2725C22.8569 59.6783 23.0957 60.0354 23.402 60.3443L24.3677 59.3868C24.1848 59.2023 24.0463 58.9944 23.9483 58.7558L22.6902 59.2725ZM23.3998 60.3421C23.7101 60.658 24.0708 60.8971 24.4683 61.0641L24.9949 59.8102C24.7569 59.7102 24.5488 59.5711 24.3699 59.389L23.3998 60.3421ZM24.472 61.0656C24.8725 61.231 25.2951 61.3179 25.7331 61.3179V59.9579C25.4786 59.9579 25.2321 59.9081 24.9913 59.8086L24.472 61.0656ZM25.7331 61.3179H26.619V59.9579H25.7331V61.3179ZM25.939 60.6379V70H27.299V60.6379H25.939ZM4.85714 70.68H26.619V69.32H4.85714V70.68ZM-0.68 65.1429C-0.68 68.2009 1.79906 70.68 4.85714 70.68V69.32C2.55017 69.32 0.68 67.4498 0.68 65.1429H-0.68ZM-0.68 4.85714V65.1429H0.68V4.85714H-0.68ZM29.0105 70.68H40.9635V69.32H29.0105V70.68ZM29.6905 70V58.2323H28.3305V70H29.6905ZM29.0105 57.5523H25.7331V58.9123H29.0105V57.5523ZM25.7331 57.5523C25.76 57.5523 25.794 57.555 25.8316 57.5631C25.8679 57.5709 25.8944 57.581 25.9069 57.5861L25.3851 58.8421C25.4843 58.8832 25.5978 58.9123 25.7331 58.9123V57.5523ZM25.8986 57.5827C25.9277 57.5944 25.9619 57.6116 25.9968 57.6357C26.0302 57.6587 26.0525 57.68 26.0622 57.6897L25.0978 58.6486C25.1706 58.7218 25.2645 58.7939 25.3935 58.8455L25.8986 57.5827ZM26.0724 57.7002C26.0706 57.6983 26.0862 57.7143 26.1051 57.7408C26.1267 57.7711 26.145 57.8042 26.1589 57.8378L24.9021 58.3573C24.9594 58.496 25.0376 58.5857 25.0876 58.6382L26.0724 57.7002ZM26.1601 57.8406C26.1713 57.8681 26.1813 57.9007 26.1875 57.9368C26.1935 57.971 26.194 57.9968 26.194 58.0068H24.834C24.834 58.1067 24.8478 58.2243 24.9009 58.3545L26.1601 57.8406ZM26.194 58.0068C26.194 57.3793 26.0914 56.7632 25.8931 56.1715L24.6036 56.6036C24.7561 57.0586 24.834 57.5289 24.834 58.0068H26.194ZM25.8933 56.172C25.6911 55.5669 25.3903 55.0085 25.005 54.5074L23.9269 55.3364C24.2224 55.7206 24.4504 56.1451 24.6034 56.6031L25.8933 56.172ZM25.0051 54.5075C24.6211 54.0079 24.1614 53.5778 23.6351 53.2298L22.885 54.3642C23.2841 54.6281 23.6333 54.9545 23.9269 55.3363L25.0051 54.5075ZM23.6351 53.2298C23.1079 52.8812 22.5296 52.6254 21.9177 52.4693L21.5815 53.7871C22.0465 53.9057 22.4848 54.0997 22.885 54.3642L23.6351 53.2298ZM21.9176 52.4693C15.5368 50.8423 11.0715 45.0355 11.0715 38.4091H9.71148C9.71148 45.648 14.5895 52.0043 21.5816 53.7871L21.9176 52.4693ZM11.0715 38.4091C11.0715 31.5171 15.9002 25.5547 22.5999 24.196L22.3296 22.8631C14.9864 24.3523 9.71147 30.8799 9.71148 38.4091L11.0715 38.4091ZM22.6 24.196C23.3838 24.0368 24.0832 23.6118 24.5843 22.9837L23.5212 22.1356C23.2205 22.5125 22.8024 22.7671 22.3294 22.8631L22.6 24.196ZM24.5825 22.986C25.077 22.3716 25.3414 21.6141 25.3414 20.8258H23.9814C23.9814 21.3069 23.8212 21.7628 23.523 22.1333L24.5825 22.986ZM25.3414 20.8258V20.8232H23.9814V20.8258H25.3414ZM25.3414 20.8232C25.3414 15.4471 29.6625 11.0853 34.9987 11.0853L34.9987 9.7253C28.9001 9.7253 23.9814 14.7073 23.9814 20.8232H25.3414ZM34.9987 11.0853C40.3349 11.0853 44.656 15.4471 44.656 20.8232H46.016C46.016 14.7073 41.0973 9.7253 34.9987 9.7253V11.0853ZM44.656 20.8232V20.8258H46.016V20.8232H44.656ZM44.656 20.8258C44.656 21.6027 44.9152 22.3475 45.3912 22.9561L46.4625 22.1182C46.1723 21.7472 46.016 21.2968 46.016 20.8258H44.656ZM45.3954 22.9615L45.4113 22.9813L46.4741 22.1327L46.4582 22.1129L45.3954 22.9615ZM45.4097 22.9793L45.4262 23.0001L46.4922 22.1556L46.4757 22.1348L45.4097 22.9793ZM45.4329 23.0084C45.9348 23.622 46.6259 24.0388 47.4007 24.196L47.6711 22.8631C47.2041 22.7684 46.7892 22.5186 46.4855 22.1473L45.4329 23.0084ZM47.4008 24.196C54.102 25.5547 58.9285 31.5163 58.9285 38.4091H60.2885C60.2885 30.8793 55.0159 24.3523 47.6711 22.8631L47.4008 24.196ZM58.9285 38.4091C58.9285 45.0355 54.4635 50.8423 48.0827 52.4693L48.4187 53.7871C55.4109 52.0043 60.2885 45.648 60.2885 38.4091L58.9285 38.4091ZM48.0825 52.4693C47.471 52.6254 46.8928 52.8812 46.3654 53.2297L47.1152 54.3644C47.5158 54.0997 47.9542 53.9057 48.4189 53.7871L48.0825 52.4693ZM46.365 53.2299C45.8407 53.5769 45.3774 54.0065 44.9925 54.5077L46.0711 55.3361C46.3631 54.9559 46.7151 54.6291 47.1155 54.3641L46.365 53.2299ZM44.9927 54.5074C44.6073 55.0086 44.3101 55.568 44.1087 56.1669L45.3978 56.6003C45.5517 56.1427 45.778 55.7172 46.0708 55.3364L44.9927 54.5074ZM44.1089 56.1664C43.9088 56.7598 43.8063 57.378 43.8063 58.0068H45.1663C45.1663 57.527 45.2443 57.0555 45.3976 56.6008L44.1089 56.1664ZM43.8063 58.0068C43.8063 58.0064 43.8063 58.0011 43.8067 57.9928C43.8072 57.9844 43.8081 57.9714 43.8104 57.9552C43.815 57.9218 43.825 57.8755 43.8471 57.8235L45.099 58.3548C45.1652 58.1988 45.1663 58.0591 45.1663 58.0068H43.8063ZM43.8453 57.8276C43.8522 57.8111 43.8658 57.7823 43.8883 57.7495C43.9101 57.7175 43.9302 57.6967 43.9377 57.6891L44.8964 58.6538C44.9811 58.5696 45.0493 58.4741 45.1008 58.3506L43.8453 57.8276ZM43.9311 57.6958C43.9509 57.6756 43.9803 57.6495 44.0189 57.6247C44.056 57.6008 44.0867 57.5877 44.0992 57.5827L44.6043 58.8455C44.704 58.8056 44.8061 58.7461 44.903 58.6471L43.9311 57.6958ZM44.093 57.5852C44.102 57.5815 44.1261 57.5722 44.1601 57.5645C44.1961 57.5563 44.2326 57.5523 44.2676 57.5523V58.9123C44.4111 58.9123 44.5254 58.8779 44.6105 58.8429L44.093 57.5852ZM44.2676 57.5523H40.9869V58.9123H44.2676V57.5523ZM40.3069 58.2323V69.8311H41.6669V58.2323H40.3069ZM40.3134 69.7375L40.2899 69.9064L41.637 70.0936L41.6605 69.9246L40.3134 69.7375ZM26.6844 21.2461C26.8243 17.184 30.329 13.8186 34.7266 13.6843L34.685 12.3249C29.6369 12.4791 25.492 16.3566 25.3252 21.1993L26.6844 21.2461ZM26.8013 22.8301C26.7051 22.3072 26.666 21.776 26.6844 21.2464L25.3253 21.199C25.3034 21.827 25.3497 22.4566 25.4638 23.0763L26.8013 22.8301ZM27.2556 24.3553C27.0502 23.8593 26.8967 23.3497 26.8014 22.8304L25.4637 23.076C25.5774 23.695 25.7592 24.2966 25.9991 24.8757L27.2556 24.3553ZM28.0349 25.7759C27.7229 25.327 27.4612 24.8518 27.2556 24.3553L25.9991 24.8757C26.2435 25.4658 26.5528 26.0264 26.9182 26.5521L28.0349 25.7759ZM29.0998 27.0122C28.7002 26.6341 28.3446 26.2211 28.0348 25.7757L26.9183 26.5523C27.2819 27.0751 27.6987 27.5588 28.1651 28.0001L29.0998 27.0122ZM30.4143 28.0234C29.9385 27.7269 29.4982 27.39 29.1004 27.0127L28.1645 27.9995C28.6327 28.4435 29.1464 28.8358 29.695 29.1777L30.4143 28.0234ZM31.93 28.7675C31.3972 28.5684 30.8904 28.3202 30.4144 28.0235L29.6949 29.1776C30.2501 29.5237 30.8388 29.8115 31.454 30.0414L31.93 28.7675ZM33.5737 29.2038C33.0106 29.1122 32.462 28.9656 31.9293 28.7672L31.4547 30.0417C32.0686 30.2703 32.7029 30.44 33.3554 30.5462L33.5737 29.2038ZM35.2734 29.3158C34.7045 29.3334 34.1349 29.296 33.5748 29.204L33.3543 30.546C34.0016 30.6524 34.6592 30.6955 35.3156 30.6751L35.2734 29.3158ZM43.3158 21.7529C43.1794 25.8166 39.6732 29.1808 35.2736 29.3158L35.3153 30.6751C40.3642 30.5202 44.5123 26.6447 44.675 21.7985L43.3158 21.7529ZM43.1989 20.1711C43.2945 20.6927 43.3336 21.2237 43.3158 21.7528L44.675 21.7986C44.6961 21.1721 44.6499 20.5436 44.5366 19.9257L43.1989 20.1711ZM42.7444 18.64C42.9516 19.1342 43.1027 19.6463 43.1989 20.171L44.5366 19.9258C44.4231 19.3065 44.2443 18.7003 43.9987 18.1143L42.7444 18.64ZM41.9681 17.2241C42.2773 17.6677 42.5359 18.1433 42.7446 18.6404L43.9985 18.1139C43.7545 17.5326 43.4503 16.9724 43.084 16.4466L41.9681 17.2241ZM40.897 15.9832C41.2989 16.3627 41.6576 16.7775 41.9678 17.2236L43.0844 16.4472C42.7191 15.9219 42.2986 15.4361 41.8305 14.9943L40.897 15.9832ZM39.5852 14.9763C40.0583 15.2704 40.4981 15.6083 40.8979 15.9842L41.8295 14.9933C41.3634 14.555 40.8519 14.1624 40.3033 13.8213L39.5852 14.9763ZM38.0751 14.2336C38.6044 14.4313 39.11 14.6802 39.5846 14.976L40.3039 13.8217C39.752 13.4778 39.1649 13.1889 38.551 12.9595L38.0751 14.2336ZM36.4305 13.7962C36.9932 13.8878 37.5435 14.0347 38.0748 14.2335L38.5513 12.9596C37.9373 12.73 37.3007 12.56 36.6491 12.4539L36.4305 13.7962ZM34.7268 13.6842C35.2966 13.6666 35.8681 13.7043 36.4301 13.7961L36.6495 12.4539C36.0013 12.348 35.3422 12.3045 34.6847 12.3249L34.7268 13.6842ZM34.7669 14.7038C31.0518 14.8174 27.9707 17.6831 27.8473 21.2767L29.2065 21.3233C29.3031 18.5107 31.7435 16.1569 34.8085 16.0631L34.7669 14.7038ZM36.2152 14.7985C35.7405 14.7231 35.2549 14.6881 34.766 14.7038L34.8095 16.0631C35.205 16.0504 35.6044 16.0785 36.0019 16.1417L36.2152 14.7985ZM37.6191 15.1715C37.1652 15.0028 36.6986 14.8795 36.2209 14.7994L35.9962 16.1407C36.3912 16.2069 36.7742 16.3084 37.1453 16.4463L37.6191 15.1715ZM38.9158 15.8098C38.5037 15.5516 38.0709 15.3412 37.6214 15.1723L37.1431 16.4455C37.5131 16.5845 37.8636 16.7554 38.1938 16.9623L38.9158 15.8098ZM40.0453 16.6774C39.7012 16.3536 39.3234 16.0613 38.9119 15.8073L38.1978 16.9648C38.5286 17.1689 38.8337 17.4047 39.1132 17.6678L40.0453 16.6774ZM40.9746 17.7534C40.7031 17.3626 40.3931 17.0058 40.0461 16.6782L39.1124 17.667C39.3944 17.9333 39.6423 18.2193 39.8577 18.5294L40.9746 17.7534ZM41.6519 18.9893C41.471 18.5592 41.2466 18.1438 40.9741 17.7527L39.8582 18.5301C40.0726 18.8379 40.2519 19.1685 40.3981 19.5164L41.6519 18.9893ZM42.05 20.3337C41.967 19.8727 41.834 19.4244 41.6522 18.9903L40.3977 19.5155C40.5418 19.8595 40.6464 20.2125 40.7116 20.5747L42.05 20.3337ZM42.1526 21.7239C42.169 21.2585 42.1362 20.7944 42.0492 20.3292L40.7124 20.5792C40.7804 20.9431 40.8064 21.3073 40.7934 21.6761L42.1526 21.7239ZM35.2334 28.2966C38.9473 28.1826 42.0327 25.3211 42.1526 21.7227L40.7934 21.6774C40.6996 24.4922 38.2572 26.8431 35.1917 26.9372L35.2334 28.2966ZM33.7861 28.2007C34.2621 28.2773 34.745 28.3119 35.2338 28.2966L35.1913 26.9372C34.795 26.9496 34.3989 26.9218 34.0021 26.8579L33.7861 28.2007ZM32.3839 27.8288C32.8375 27.9974 33.3014 28.1207 33.7834 28.2002L34.0048 26.8584C33.6085 26.793 33.2291 26.6921 32.8577 26.554L32.3839 27.8288ZM31.0845 27.1908C31.4965 27.4485 31.9295 27.6591 32.3828 27.8284L32.8588 26.5545C32.4864 26.4153 32.1361 26.2444 31.8058 26.0378L31.0845 27.1908ZM29.9518 26.3196C30.2996 26.6512 30.6793 26.9402 31.0875 27.1926L31.8028 26.0359C31.4692 25.8297 31.1653 25.5976 30.8903 25.3353L29.9518 26.3196ZM29.0287 25.2471C29.2983 25.6343 29.6047 25.9926 29.9547 26.3224L30.8874 25.3325C30.6077 25.069 30.3624 24.7825 30.145 24.4702L29.0287 25.2471ZM28.3495 24.0086C28.5298 24.4465 28.7591 24.859 29.0284 25.2466L30.1453 24.4706C29.9277 24.1574 29.7472 23.8311 29.6072 23.4909L28.3495 24.0086ZM27.9505 22.6721C28.0367 23.1294 28.169 23.5748 28.3505 24.0109L29.6062 23.4885C29.4612 23.1401 29.3559 22.7854 29.287 22.4202L27.9505 22.6721ZM27.8473 21.2761C27.8309 21.7451 27.8678 22.2098 27.9494 22.6659L29.2882 22.4264C29.2222 22.0579 29.1936 21.6897 29.2065 21.3239L27.8473 21.2761Z" fill="black" mask="url(#path-1-inside-1_60_155)"/>
</svg>
