<svg width="240" height="100" viewBox="0 0 240 100" fill="none" xmlns="http://www.w3.org/2000/svg">
<mask id="path-1-inside-1_60_173" fill="white">
<path fill-rule="evenodd" clip-rule="evenodd" d="M0 7.14286C0 3.19797 3.19797 0 7.14286 0H232.857C236.802 0 240 3.19797 240 7.14286V92.8571C240 96.802 236.802 100 232.857 100H61.9688L61.9692 99.9977V86.6256H63.2394C63.7335 86.6256 64.2115 86.528 64.6659 86.3387C65.1239 86.1481 65.5256 85.878 65.8751 85.526C66.225 85.1698 66.494 84.7662 66.6868 84.3059C66.8758 83.8437 66.9683 83.3629 66.9683 82.8668C66.9683 82.4502 67.0367 82.0452 67.1693 81.65C67.302 81.2571 67.4948 80.893 67.7476 80.562C68.0014 80.2346 68.3023 79.9561 68.648 79.7255C68.9938 79.4991 69.3673 79.3335 69.769 79.2289C80.5747 76.4758 88.5714 66.6162 88.5714 54.8702C88.5714 42.7029 79.9881 32.5568 68.5838 30.245C68.4673 30.2199 68.3707 30.1641 68.2944 30.0711C68.2223 29.9785 68.1821 29.8725 68.1821 29.7512V29.7474C68.1821 19.6297 60.0403 11.4286 49.9981 11.4286C39.956 11.4286 31.8146 19.6297 31.8146 29.7474V29.7512C31.8146 29.8725 31.7786 29.9785 31.7018 30.0711C31.6297 30.1641 31.5331 30.2199 31.4171 30.245C20.0165 32.5568 11.4286 42.7029 11.4286 54.8702C11.4286 66.6162 19.4257 76.4758 30.2315 79.2289C30.6331 79.3335 31.0066 79.4991 31.3529 79.7255C31.6981 79.9561 31.9954 80.2346 32.2487 80.562C32.502 80.893 32.6989 81.2539 32.8316 81.65C32.9638 82.0452 33.0322 82.4502 33.0322 82.8668C33.0322 83.363 33.1246 83.8437 33.3132 84.3059C33.5023 84.7662 33.7717 85.1698 34.1212 85.5223C34.4706 85.878 34.877 86.1481 35.3309 86.3387C35.7889 86.528 36.2669 86.6256 36.7615 86.6256H38.0271V100H7.14286C3.19797 100 0 96.802 0 92.8571V7.14286ZM58.5192 100H41.4435V83.189H36.7615C36.7153 83.189 36.6797 83.1807 36.6372 83.163C36.5988 83.1477 36.5724 83.1286 36.5429 83.0988C36.511 83.0654 36.4892 83.0379 36.4721 82.9966C36.4541 82.9524 36.4486 82.9143 36.4486 82.8668C36.4486 82.0773 36.3196 81.3013 36.0691 80.5536C35.8153 79.7943 35.4376 79.0922 34.9514 78.4599C34.4674 77.8303 33.8896 77.29 33.2286 76.8529C32.5662 76.4149 31.8401 76.0936 31.0709 75.8974C21.5187 73.4619 14.845 64.774 14.845 54.8702C14.845 44.5692 22.0619 35.6479 32.0924 33.6137C32.9901 33.4314 33.7884 32.946 34.3611 32.2281C34.9273 31.5246 35.2306 30.6579 35.2306 29.7512V29.7474C35.2306 21.5389 41.8304 14.8647 49.9981 14.8647C58.1659 14.8647 64.7657 21.5389 64.7657 29.7474V29.7512C64.7657 30.6425 65.0625 31.4962 65.6098 32.196L65.6324 32.2243L65.656 32.2541C66.2315 32.9576 67.0214 33.4337 67.9085 33.6137C77.9413 35.6479 85.155 44.5683 85.155 54.8702C85.155 64.774 78.4817 73.4619 68.9296 75.8974C68.1609 76.0936 67.4347 76.4149 66.7718 76.8529C66.1113 77.29 65.5289 77.8303 65.0454 78.4599C64.5609 79.0899 64.187 79.7934 63.9332 80.548C63.6808 81.2966 63.5519 82.075 63.5519 82.8668C63.5519 82.9073 63.5491 82.9463 63.5329 82.9845C63.5126 83.0333 63.4909 83.0644 63.453 83.1021C63.4238 83.1319 63.3979 83.1477 63.3596 83.163C63.3189 83.1797 63.2833 83.189 63.2394 83.189H58.5528V99.7587L58.5192 100ZM49.5797 18.578C42.8328 18.7841 37.3688 23.9576 37.1498 30.3182C37.121 31.145 37.182 31.9741 37.3322 32.7903C37.4815 33.6034 37.721 34.397 38.0391 35.165C38.3605 35.9412 38.7683 36.681 39.2522 37.3772C39.7332 38.0687 40.2849 38.7092 40.9035 39.2945C41.522 39.8811 42.2035 40.402 42.9352 40.8579C43.6718 41.3171 44.4543 41.6999 45.2743 42.0064C46.0933 42.3114 46.9382 42.5373 47.8065 42.6786C48.669 42.8203 49.5456 42.8778 50.4207 42.8507C57.1696 42.6436 62.6369 37.4724 62.8506 31.1082C62.8784 30.2827 62.8174 29.4545 62.6682 28.6406C62.5184 27.8234 62.2828 27.0247 61.9594 26.2531C61.636 25.4829 61.234 24.743 60.7516 24.0505C60.2691 23.3567 59.7125 22.7135 59.091 22.1268C58.4725 21.5452 57.793 21.0235 57.0632 20.5698C56.33 20.1129 55.5495 19.7287 54.7329 19.4237C53.9149 19.1177 53.0671 18.8913 52.1997 18.7501C51.3353 18.6088 50.4563 18.5508 49.5797 18.578ZM40.7528 30.4286C40.9098 25.8528 44.8538 22.1245 49.6968 21.9764C50.3285 21.9561 50.9607 22.0012 51.5836 22.1001C52.207 22.2046 52.8139 22.3652 53.4032 22.5842C53.9885 22.8041 54.5481 23.0765 55.0783 23.4087C55.6086 23.7358 56.0964 24.1131 56.5417 24.5323C56.991 24.9565 57.3896 25.4157 57.7374 25.9163C58.0852 26.4155 58.3735 26.9483 58.6071 27.5041C58.8398 28.0599 59.0096 28.6323 59.1154 29.2203C59.2262 29.8125 59.2681 30.4042 59.2471 31C59.0945 35.5809 55.1461 39.3041 50.3036 39.4527C49.6714 39.4725 49.0436 39.4279 48.4202 39.3276C47.7928 39.2241 47.1904 39.064 46.6011 38.8449C46.0114 38.6245 45.4518 38.3522 44.9216 38.0204C44.3918 37.6928 43.9035 37.3206 43.4586 36.8964C43.0089 36.4726 42.6147 36.012 42.2669 35.5124C41.9191 35.0118 41.6264 34.484 41.3976 33.9282C41.1645 33.3678 40.9947 32.7963 40.884 32.2088C40.7786 31.6198 40.7318 31.0249 40.7528 30.4286Z"/>
</mask>
<path fill-rule="evenodd" clip-rule="evenodd" d="M0 7.14286C0 3.19797 3.19797 0 7.14286 0H232.857C236.802 0 240 3.19797 240 7.14286V92.8571C240 96.802 236.802 100 232.857 100H61.9688L61.9692 99.9977V86.6256H63.2394C63.7335 86.6256 64.2115 86.528 64.6659 86.3387C65.1239 86.1481 65.5256 85.878 65.8751 85.526C66.225 85.1698 66.494 84.7662 66.6868 84.3059C66.8758 83.8437 66.9683 83.3629 66.9683 82.8668C66.9683 82.4502 67.0367 82.0452 67.1693 81.65C67.302 81.2571 67.4948 80.893 67.7476 80.562C68.0014 80.2346 68.3023 79.9561 68.648 79.7255C68.9938 79.4991 69.3673 79.3335 69.769 79.2289C80.5747 76.4758 88.5714 66.6162 88.5714 54.8702C88.5714 42.7029 79.9881 32.5568 68.5838 30.245C68.4673 30.2199 68.3707 30.1641 68.2944 30.0711C68.2223 29.9785 68.1821 29.8725 68.1821 29.7512V29.7474C68.1821 19.6297 60.0403 11.4286 49.9981 11.4286C39.956 11.4286 31.8146 19.6297 31.8146 29.7474V29.7512C31.8146 29.8725 31.7786 29.9785 31.7018 30.0711C31.6297 30.1641 31.5331 30.2199 31.4171 30.245C20.0165 32.5568 11.4286 42.7029 11.4286 54.8702C11.4286 66.6162 19.4257 76.4758 30.2315 79.2289C30.6331 79.3335 31.0066 79.4991 31.3529 79.7255C31.6981 79.9561 31.9954 80.2346 32.2487 80.562C32.502 80.893 32.6989 81.2539 32.8316 81.65C32.9638 82.0452 33.0322 82.4502 33.0322 82.8668C33.0322 83.363 33.1246 83.8437 33.3132 84.3059C33.5023 84.7662 33.7717 85.1698 34.1212 85.5223C34.4706 85.878 34.877 86.1481 35.3309 86.3387C35.7889 86.528 36.2669 86.6256 36.7615 86.6256H38.0271V100H7.14286C3.19797 100 0 96.802 0 92.8571V7.14286ZM58.5192 100H41.4435V83.189H36.7615C36.7153 83.189 36.6797 83.1807 36.6372 83.163C36.5988 83.1477 36.5724 83.1286 36.5429 83.0988C36.511 83.0654 36.4892 83.0379 36.4721 82.9966C36.4541 82.9524 36.4486 82.9143 36.4486 82.8668C36.4486 82.0773 36.3196 81.3013 36.0691 80.5536C35.8153 79.7943 35.4376 79.0922 34.9514 78.4599C34.4674 77.8303 33.8896 77.29 33.2286 76.8529C32.5662 76.4149 31.8401 76.0936 31.0709 75.8974C21.5187 73.4619 14.845 64.774 14.845 54.8702C14.845 44.5692 22.0619 35.6479 32.0924 33.6137C32.9901 33.4314 33.7884 32.946 34.3611 32.2281C34.9273 31.5246 35.2306 30.6579 35.2306 29.7512V29.7474C35.2306 21.5389 41.8304 14.8647 49.9981 14.8647C58.1659 14.8647 64.7657 21.5389 64.7657 29.7474V29.7512C64.7657 30.6425 65.0625 31.4962 65.6098 32.196L65.6324 32.2243L65.656 32.2541C66.2315 32.9576 67.0214 33.4337 67.9085 33.6137C77.9413 35.6479 85.155 44.5683 85.155 54.8702C85.155 64.774 78.4817 73.4619 68.9296 75.8974C68.1609 76.0936 67.4347 76.4149 66.7718 76.8529C66.1113 77.29 65.5289 77.8303 65.0454 78.4599C64.5609 79.0899 64.187 79.7934 63.9332 80.548C63.6808 81.2966 63.5519 82.075 63.5519 82.8668C63.5519 82.9073 63.5491 82.9463 63.5329 82.9845C63.5126 83.0333 63.4909 83.0644 63.453 83.1021C63.4238 83.1319 63.3979 83.1477 63.3596 83.163C63.3189 83.1797 63.2833 83.189 63.2394 83.189H58.5528V99.7587L58.5192 100ZM49.5797 18.578C42.8328 18.7841 37.3688 23.9576 37.1498 30.3182C37.121 31.145 37.182 31.9741 37.3322 32.7903C37.4815 33.6034 37.721 34.397 38.0391 35.165C38.3605 35.9412 38.7683 36.681 39.2522 37.3772C39.7332 38.0687 40.2849 38.7092 40.9035 39.2945C41.522 39.8811 42.2035 40.402 42.9352 40.8579C43.6718 41.3171 44.4543 41.6999 45.2743 42.0064C46.0933 42.3114 46.9382 42.5373 47.8065 42.6786C48.669 42.8203 49.5456 42.8778 50.4207 42.8507C57.1696 42.6436 62.6369 37.4724 62.8506 31.1082C62.8784 30.2827 62.8174 29.4545 62.6682 28.6406C62.5184 27.8234 62.2828 27.0247 61.9594 26.2531C61.636 25.4829 61.234 24.743 60.7516 24.0505C60.2691 23.3567 59.7125 22.7135 59.091 22.1268C58.4725 21.5452 57.793 21.0235 57.0632 20.5698C56.33 20.1129 55.5495 19.7287 54.7329 19.4237C53.9149 19.1177 53.0671 18.8913 52.1997 18.7501C51.3353 18.6088 50.4563 18.5508 49.5797 18.578ZM40.7528 30.4286C40.9098 25.8528 44.8538 22.1245 49.6968 21.9764C50.3285 21.9561 50.9607 22.0012 51.5836 22.1001C52.207 22.2046 52.8139 22.3652 53.4032 22.5842C53.9885 22.8041 54.5481 23.0765 55.0783 23.4087C55.6086 23.7358 56.0964 24.1131 56.5417 24.5323C56.991 24.9565 57.3896 25.4157 57.7374 25.9163C58.0852 26.4155 58.3735 26.9483 58.6071 27.5041C58.8398 28.0599 59.0096 28.6323 59.1154 29.2203C59.2262 29.8125 59.2681 30.4042 59.2471 31C59.0945 35.5809 55.1461 39.3041 50.3036 39.4527C49.6714 39.4725 49.0436 39.4279 48.4202 39.3276C47.7928 39.2241 47.1904 39.064 46.6011 38.8449C46.0114 38.6245 45.4518 38.3522 44.9216 38.0204C44.3918 37.6928 43.9035 37.3206 43.4586 36.8964C43.0089 36.4726 42.6147 36.012 42.2669 35.5124C41.9191 35.0118 41.6264 34.484 41.3976 33.9282C41.1645 33.3678 40.9947 32.7963 40.884 32.2088C40.7786 31.6198 40.7318 31.0249 40.7528 30.4286Z" fill="#FFDC97"/>
<path d="M61.9688 100L60.5538 99.8041L60.3289 101.429H61.9688V100ZM61.9692 99.9977L63.3842 100.194L63.3977 100.096V99.9977H61.9692ZM61.9692 86.6256V85.1971H60.5406V86.6256H61.9692ZM64.6659 86.3387L64.117 85.0198L64.1166 85.02L64.6659 86.3387ZM65.8751 85.526L66.8889 86.5325L66.8941 86.5272L65.8751 85.526ZM66.6868 84.3059L68.0045 84.8577L68.009 84.8468L66.6868 84.3059ZM67.1693 81.65L65.8158 81.193L65.815 81.1954L67.1693 81.65ZM67.7476 80.562L66.6185 79.6867L66.6123 79.6949L67.7476 80.562ZM68.648 79.7255L67.8653 78.5304L67.8553 78.537L68.648 79.7255ZM69.769 79.2289L69.4163 77.8445L69.4089 77.8465L69.769 79.2289ZM68.5838 30.245L68.2828 31.6415L68.2914 31.6433L68.3 31.6451L68.5838 30.245ZM68.2944 30.0711L67.1676 30.9492L67.1786 30.9633L67.1899 30.977L68.2944 30.0711ZM49.9981 11.4286L49.9981 10L49.9981 10L49.9981 11.4286ZM31.7018 30.0711L30.6022 29.1592L30.5872 29.1772L30.5729 29.1957L31.7018 30.0711ZM31.4171 30.245L31.701 31.645L31.7102 31.6432L31.7193 31.6412L31.4171 30.245ZM11.4286 54.8702L12.8571 54.8702L12.8571 54.8702L11.4286 54.8702ZM30.2315 79.2289L30.5915 77.8464L30.5842 77.8446L30.2315 79.2289ZM31.3529 79.7255L32.1463 78.5375L32.1348 78.5299L31.3529 79.7255ZM32.2487 80.562L33.3832 79.6939L33.3785 79.6877L32.2487 80.562ZM32.8316 81.65L34.1863 81.1968L34.1862 81.1964L32.8316 81.65ZM33.3132 84.3059L31.9905 84.8456L31.9917 84.8486L33.3132 84.3059ZM34.1212 85.5223L35.1403 84.5211L35.1356 84.5164L34.1212 85.5223ZM35.3309 86.3387L34.7777 87.6559L34.7854 87.6591L35.3309 86.3387ZM38.0271 86.6256H39.4557V85.1971H38.0271V86.6256ZM38.0271 100V101.429H39.4557V100H38.0271ZM41.4435 100H40.0149V101.429H41.4435V100ZM58.5192 100V101.429H59.763L59.9342 100.197L58.5192 100ZM41.4435 83.189H42.8721V81.7605H41.4435V83.189ZM36.6372 83.163L37.1853 81.8438L37.1765 81.8401L37.1676 81.8366L36.6372 83.163ZM36.5429 83.0988L35.5085 84.0842L35.519 84.0952L35.5297 84.1059L36.5429 83.0988ZM36.4721 82.9966L35.1495 83.5364L35.1519 83.5422L36.4721 82.9966ZM36.0691 80.5536L34.7142 81.0064L34.7145 81.0075L36.0691 80.5536ZM34.9514 78.4599L33.8188 79.3305L33.8189 79.3307L34.9514 78.4599ZM33.2286 76.8529L32.4407 78.0445L32.4407 78.0446L33.2286 76.8529ZM31.0709 75.8974L31.424 74.5132L31.4238 74.5131L31.0709 75.8974ZM14.845 54.8702L16.2735 54.8702L16.2735 54.8702L14.845 54.8702ZM32.0924 33.6137L32.3764 35.0137L32.3767 35.0137L32.0924 33.6137ZM34.3611 32.2281L33.2482 31.3323L33.2443 31.3372L34.3611 32.2281ZM49.9981 14.8647L49.9981 13.4362L49.9981 13.4362L49.9981 14.8647ZM65.6098 32.196L64.4845 33.0761L64.489 33.0818L64.4935 33.0875L65.6098 32.196ZM65.6324 32.2243L66.7523 31.3374L66.7487 31.3328L65.6324 32.2243ZM65.656 32.2541L64.5361 33.141L64.5431 33.1499L64.5502 33.1586L65.656 32.2541ZM67.9085 33.6137L67.6244 35.0137L67.6246 35.0137L67.9085 33.6137ZM85.155 54.8702L83.7264 54.8702L83.7264 54.8702L85.155 54.8702ZM68.9296 75.8974L68.5766 74.5131L68.5762 74.5132L68.9296 75.8974ZM66.7718 76.8529L65.9842 75.6611L65.9835 75.6616L66.7718 76.8529ZM65.0454 78.4599L66.1779 79.3306L66.1784 79.33L65.0454 78.4599ZM63.9332 80.548L65.2869 81.0044L65.2873 81.0034L63.9332 80.548ZM63.5329 82.9845L62.2178 82.4264L62.2142 82.4351L63.5329 82.9845ZM63.453 83.1021L62.446 82.0888L62.4389 82.0958L62.432 82.1029L63.453 83.1021ZM63.3596 83.163L62.8291 81.8366L62.8225 81.8392L62.816 81.8419L63.3596 83.163ZM58.5528 83.189V81.7605H57.1242V83.189H58.5528ZM58.5528 99.7587L59.9678 99.9553L59.9813 99.8574V99.7587H58.5528ZM37.1498 30.3182L38.5775 30.3679L38.5775 30.3673L37.1498 30.3182ZM49.5797 18.578L49.6233 20.0059L49.6239 20.0059L49.5797 18.578ZM37.3322 32.7903L38.7373 32.5324L38.7372 32.5317L37.3322 32.7903ZM38.0391 35.165L39.3589 34.6184L39.3589 34.6183L38.0391 35.165ZM39.2522 37.3772L38.0792 38.1926L38.0794 38.1929L39.2522 37.3772ZM40.9035 39.2945L41.8866 38.2579L41.8853 38.2568L40.9035 39.2945ZM42.9352 40.8579L43.691 39.6456L43.6907 39.6455L42.9352 40.8579ZM45.2743 42.0064L44.7742 43.3445L44.7757 43.3451L45.2743 42.0064ZM47.8065 42.6786L48.0381 41.2689L48.0359 41.2685L47.8065 42.6786ZM50.4207 42.8507L50.3769 41.4228L50.3764 41.4228L50.4207 42.8507ZM62.8506 31.1082L61.4228 31.0601L61.4228 31.0602L62.8506 31.1082ZM62.6682 28.6406L61.263 28.8981L61.263 28.8983L62.6682 28.6406ZM61.9594 26.2531L63.2769 25.7009L63.2765 25.7L61.9594 26.2531ZM60.7516 24.0505L59.5787 24.8661L59.5794 24.8672L60.7516 24.0505ZM59.091 22.1268L60.0717 21.088L60.0696 21.086L59.091 22.1268ZM57.0632 20.5698L56.3077 21.7822L56.309 21.783L57.0632 20.5698ZM54.7329 19.4237L54.2325 20.7617L54.233 20.7619L54.7329 19.4237ZM52.1997 18.7501L51.9693 20.1599L51.9701 20.1601L52.1997 18.7501ZM49.6968 21.9764L49.7405 23.4043L49.7425 23.4042L49.6968 21.9764ZM40.7528 30.4286L42.1804 30.4788L42.1805 30.4776L40.7528 30.4286ZM51.5836 22.1001L51.8197 20.6911L51.8077 20.6892L51.5836 22.1001ZM53.4032 22.5842L53.9056 21.2469L53.9008 21.2451L53.4032 22.5842ZM55.0783 23.4087L54.3198 24.6193L54.3282 24.6245L55.0783 23.4087ZM56.5417 24.5323L57.5225 23.4936L57.5208 23.492L56.5417 24.5323ZM57.7374 25.9163L56.5642 26.7314L56.5652 26.7329L57.7374 25.9163ZM58.6071 27.5041L59.9249 26.9525L59.9241 26.9505L58.6071 27.5041ZM59.1154 29.2203L57.7094 29.4735L57.7112 29.4829L59.1154 29.2203ZM59.2471 31L57.8194 30.9498L57.8194 30.9525L59.2471 31ZM50.3036 39.4527L50.2598 38.0248L50.2589 38.0249L50.3036 39.4527ZM48.4202 39.3276L48.1876 40.7371L48.1932 40.738L48.4202 39.3276ZM46.6011 38.8449L46.101 40.1831L46.1034 40.184L46.6011 38.8449ZM44.9216 38.0204L45.6793 36.8093L45.6729 36.8054L44.9216 38.0204ZM43.4586 36.8964L44.4445 35.8625L44.4383 35.8566L43.4586 36.8964ZM42.2669 35.5124L41.0937 36.3275L41.0944 36.3285L42.2669 35.5124ZM41.3976 33.9282L42.7187 33.3844L42.7166 33.3794L41.3976 33.9282ZM40.884 32.2088L39.4777 32.4604L39.4801 32.4733L40.884 32.2088ZM7.14286 -1.42857C2.40899 -1.42857 -1.42857 2.40899 -1.42857 7.14286H1.42857C1.42857 3.98695 3.98695 1.42857 7.14286 1.42857V-1.42857ZM232.857 -1.42857H7.14286V1.42857H232.857V-1.42857ZM241.429 7.14286C241.429 2.40899 237.591 -1.42857 232.857 -1.42857V1.42857C236.013 1.42857 238.571 3.98694 238.571 7.14286H241.429ZM241.429 92.8571V7.14286H238.571V92.8571H241.429ZM232.857 101.429C237.591 101.429 241.429 97.591 241.429 92.8571H238.571C238.571 96.0131 236.013 98.5714 232.857 98.5714V101.429ZM61.9688 101.429H232.857V98.5714H61.9688V101.429ZM63.3839 100.196L63.3842 100.194L60.5541 99.8018L60.5538 99.8041L63.3839 100.196ZM63.3977 99.9977V86.6256H60.5406V99.9977H63.3977ZM61.9692 88.0542H63.2394V85.1971H61.9692V88.0542ZM63.2394 88.0542C63.9258 88.0542 64.5902 87.9178 65.2151 87.6575L64.1166 85.02C63.8328 85.1382 63.5413 85.1971 63.2394 85.1971V88.0542ZM65.2148 87.6577C65.8472 87.3945 66.4068 87.018 66.8889 86.5325L64.8613 84.5195C64.6444 84.7379 64.4007 84.9018 64.117 85.0198L65.2148 87.6577ZM66.8941 86.5272C67.3703 86.0425 67.7411 85.4867 68.0045 84.8577L65.3691 83.7541C65.2469 84.0458 65.0797 84.2971 64.856 84.5248L66.8941 86.5272ZM68.009 84.8468C68.2696 84.2098 68.3968 83.545 68.3968 82.8668H65.5397C65.5397 83.1809 65.4821 83.4777 65.3645 83.765L68.009 84.8468ZM68.3968 82.8668C68.3968 82.61 68.4385 82.3583 68.5237 82.1046L65.815 81.1954C65.6349 81.7321 65.5397 82.2904 65.5397 82.8668H68.3968ZM68.5229 82.107C68.6062 81.8603 68.7257 81.635 68.8829 81.4291L66.6123 79.6949C66.2639 80.1511 65.9979 80.6539 65.8158 81.193L68.5229 82.107ZM68.8766 81.4373C69.034 81.2343 69.2206 81.0608 69.4408 80.914L67.8553 78.537C67.384 78.8514 66.9688 79.235 66.6186 79.6867L68.8766 81.4373ZM69.4307 80.9206C69.6463 80.7794 69.877 80.677 70.129 80.6114L69.4089 77.8465C68.8576 77.9901 68.3413 78.2187 67.8654 78.5304L69.4307 80.9206ZM70.1217 80.6133C81.5516 77.7012 90 67.2783 90 54.8702H87.1428C87.1428 65.9541 79.5978 75.2505 69.4163 77.8446L70.1217 80.6133ZM90 54.8702C90 42.0173 80.9321 31.2905 68.8676 28.8449L68.3 31.6451C79.0441 33.8231 87.1428 43.3884 87.1428 54.8702H90ZM68.8848 28.8485C68.962 28.8651 69.0564 28.8974 69.1546 28.9558C69.254 29.015 69.336 29.0883 69.399 29.1651L67.1899 30.977C67.485 31.3369 67.8733 31.5532 68.2828 31.6415L68.8848 28.8485ZM69.4212 29.1929C69.4695 29.2548 69.5193 29.3374 69.5561 29.4402C69.5934 29.5443 69.6107 29.6506 69.6107 29.7512H66.7535C66.7535 30.2162 66.9162 30.6266 67.1676 30.9492L69.4212 29.1929ZM69.6107 29.7512V29.7474H66.7535V29.7512H69.6107ZM69.6107 29.7474C69.6107 18.8507 60.8391 10 49.9981 10V12.8572C59.2414 12.8572 66.7535 20.4088 66.7535 29.7474H69.6107ZM49.9981 10C39.1571 10 30.3861 18.8507 30.3861 29.7474H33.2432C33.2432 20.4088 40.7549 12.8572 49.9981 12.8572L49.9981 10ZM30.3861 29.7474V29.7512H33.2432V29.7474H30.3861ZM30.3861 29.7512C30.3861 29.6682 30.3988 29.564 30.4384 29.4506C30.4785 29.3361 30.5371 29.2377 30.6022 29.1592L32.8015 30.983C33.1035 30.6188 33.2432 30.1851 33.2432 29.7512H30.3861ZM30.5729 29.1957C30.6441 29.1038 30.7345 29.0226 30.8389 28.9597C30.9413 28.8981 31.0383 28.8653 31.1149 28.8487L31.7193 31.6412C32.1227 31.5539 32.5287 31.3361 32.8308 30.9465L30.5729 29.1957ZM31.1332 28.8449C19.0727 31.2905 9.99998 42.0171 9.99998 54.8702L12.8571 54.8702C12.8571 43.3887 20.9602 33.8231 31.701 31.645L31.1332 28.8449ZM9.99998 54.8702C9.99998 67.2784 18.4489 77.7012 29.8788 80.6133L30.5842 77.8446C20.4026 75.2505 12.8571 65.954 12.8571 54.8702H9.99998ZM29.8714 80.6114C30.1233 80.677 30.3543 80.7794 30.5709 80.9211L32.1348 78.5299C31.6589 78.2187 31.1429 77.9901 30.5915 77.8465L29.8714 80.6114ZM30.5594 80.9135C30.7747 81.0572 30.9587 81.2293 31.1189 81.4363L33.3785 79.6877C33.032 79.2399 32.6216 78.855 32.1463 78.5375L30.5594 80.9135ZM31.1141 81.4301C31.2784 81.6448 31.3977 81.8669 31.4769 82.1036L34.1862 81.1964C34.0001 80.6408 33.7255 80.1412 33.3832 79.6939L31.1141 81.4301ZM31.4768 82.1032C31.5619 82.3578 31.6036 82.61 31.6036 82.8668H34.4607C34.4607 82.2905 34.3656 81.7326 34.1863 81.1968L31.4768 82.1032ZM31.6036 82.8668C31.6036 83.545 31.7309 84.2093 31.9905 84.8456L34.6359 83.7662C34.5184 83.4782 34.4607 83.1809 34.4607 82.8668H31.6036ZM31.9917 84.8486C32.253 85.4847 32.6277 86.045 33.1067 86.5281L35.1356 84.5164C34.9158 84.2947 34.7516 84.0478 34.6347 83.7632L31.9917 84.8486ZM33.1021 86.5234C33.5897 87.0197 34.1562 87.3949 34.7777 87.6559L35.884 85.0216C35.5977 84.9014 35.3516 84.7362 35.1403 84.5211L33.1021 86.5234ZM34.7854 87.6591C35.4112 87.9176 36.0741 88.0542 36.7615 88.0542V85.1971C36.4597 85.1971 36.1667 85.1384 35.8763 85.0184L34.7854 87.6591ZM36.7615 88.0542H38.0271V85.1971H36.7615V88.0542ZM36.5985 86.6256V100H39.4557V86.6256H36.5985ZM7.14286 101.429H38.0271V98.5714H7.14286V101.429ZM-1.42857 92.8571C-1.42857 97.591 2.40899 101.429 7.14286 101.429V98.5714C3.98695 98.5714 1.42857 96.0131 1.42857 92.8571H-1.42857ZM-1.42857 7.14286V92.8571H1.42857V7.14286H-1.42857ZM41.4435 101.429H58.5192V98.5714H41.4435V101.429ZM42.8721 100V83.189H40.0149V100H42.8721ZM41.4435 81.7605H36.7615V84.6176H41.4435V81.7605ZM36.7615 81.7605C36.829 81.7605 36.91 81.767 36.9984 81.786C37.0841 81.8045 37.1491 81.8287 37.1853 81.8438L36.089 84.4822C36.2773 84.5605 36.4991 84.6176 36.7615 84.6176V81.7605ZM37.1676 81.8366C37.2379 81.8647 37.3173 81.9048 37.3979 81.9604C37.4751 82.0137 37.5286 82.0642 37.5561 82.0918L35.5297 84.1059C35.6688 84.2459 35.8539 84.3884 36.1067 84.4895L37.1676 81.8366ZM37.5772 82.1134C37.581 82.1175 37.6201 82.1582 37.6654 82.2216C37.7161 82.2928 37.7592 82.3706 37.7924 82.4509L35.1519 83.5422C35.2642 83.8141 35.4184 83.9896 35.5085 84.0842L37.5772 82.1134ZM37.7948 82.4567C37.8226 82.5248 37.8463 82.6031 37.8611 82.6887C37.8753 82.7705 37.8771 82.8348 37.8771 82.8668H35.02C35.02 83.0543 35.0463 83.2836 35.1495 83.5364L37.7948 82.4567ZM37.8771 82.8668C37.8771 81.9202 37.7223 80.991 37.4236 80.0997L34.7145 81.0075C34.9169 81.6116 35.02 82.2344 35.02 82.8668H37.8771ZM37.424 80.1008C37.1185 79.1869 36.6645 78.3442 36.0838 77.589L33.8189 79.3307C34.2108 79.8403 34.512 80.4017 34.7142 81.0064L37.424 80.1008ZM36.084 77.5892C35.505 76.836 34.8112 76.1867 34.0166 75.6613L32.4407 78.0446C32.968 78.3933 33.4298 78.8246 33.8188 79.3305L36.084 77.5892ZM34.0166 75.6613C33.2207 75.135 32.3475 74.7488 31.424 74.5132L30.7178 77.2817C31.3326 77.4385 31.9118 77.6948 32.4407 78.0445L34.0166 75.6613ZM31.4238 74.5131C22.5138 72.2413 16.2735 64.1306 16.2735 54.8702H13.4164C13.4164 65.4174 20.5237 74.6825 30.7179 77.2817L31.4238 74.5131ZM16.2735 54.8702C16.2735 45.2386 23.0217 36.9109 32.3764 35.0137L31.8085 32.2136C21.102 34.3849 13.4164 43.8999 13.4164 54.8702L16.2735 54.8702ZM32.3767 35.0137C33.6008 34.7651 34.6946 34.1007 35.4779 33.1189L33.2443 31.3372C32.8821 31.7912 32.3794 32.0977 31.8082 32.2137L32.3767 35.0137ZM35.474 33.1238C36.2464 32.1641 36.6591 30.9806 36.6591 29.7512H33.802C33.802 30.3351 33.6082 30.8851 33.2482 31.3323L35.474 33.1238ZM36.6591 29.7512V29.7474H33.802V29.7512H36.6591ZM36.6591 29.7474C36.6591 22.316 42.6312 16.2933 49.9981 16.2933L49.9981 13.4362C41.0296 13.4362 33.802 20.7618 33.802 29.7474H36.6591ZM49.9981 16.2933C57.365 16.2933 63.3371 22.316 63.3371 29.7474H66.1943C66.1943 20.7618 58.9667 13.4362 49.9981 13.4362V16.2933ZM63.3371 29.7474V29.7512H66.1943V29.7474H63.3371ZM63.3371 29.7512C63.3371 30.9637 63.742 32.1268 64.4845 33.0761L66.735 31.3159C66.3829 30.8656 66.1943 30.3213 66.1943 29.7512H63.3371ZM64.4935 33.0875L64.5161 33.1158L66.7487 31.3328L66.726 31.3045L64.4935 33.0875ZM64.5125 33.1112L64.5361 33.141L66.7759 31.3672L66.7523 31.3374L64.5125 33.1112ZM64.5502 33.1586C65.334 34.1167 66.4141 34.7682 67.6244 35.0137L68.1925 32.2136C67.6288 32.0992 67.1289 31.7985 66.7617 31.3496L64.5502 33.1586ZM67.6246 35.0137C76.9813 36.9109 83.7264 45.2374 83.7264 54.8702H86.5836C86.5836 43.8992 78.9014 34.3849 68.1923 32.2136L67.6246 35.0137ZM83.7264 54.8702C83.7264 64.1306 77.4866 72.2414 68.5766 74.5131L69.2825 77.2817C79.4768 74.6825 86.5836 65.4173 86.5836 54.8702L83.7264 54.8702ZM68.5762 74.5132C67.6533 74.7488 66.7803 75.135 65.9842 75.6611L67.5594 78.0448C68.089 77.6948 68.6684 77.4385 69.2829 77.2816L68.5762 74.5132ZM65.9835 75.6616C65.1928 76.1847 64.4934 76.8331 63.9124 77.5897L66.1784 79.33C66.5643 78.8275 67.0297 78.3953 67.5601 78.0443L65.9835 75.6616ZM63.9129 77.5891C63.3312 78.3456 62.8828 79.1897 62.5792 80.0927L65.2873 81.0034C65.4912 80.3971 65.7907 79.8342 66.1779 79.3306L63.9129 77.5891ZM62.5795 80.0916C62.278 80.986 62.1233 81.9184 62.1233 82.8668H64.9804C64.9804 82.2316 65.0837 81.6073 65.2869 81.0044L62.5795 80.0916ZM62.1233 82.8668C62.1233 82.8565 62.1188 82.6598 62.2179 82.4264L64.848 83.5425C64.9794 83.2328 64.9804 82.958 64.9804 82.8668H62.1233ZM62.2142 82.4351C62.2334 82.3889 62.267 82.3191 62.3201 82.2414C62.372 82.1654 62.4211 82.1135 62.446 82.0888L64.4599 84.1154C64.6202 83.9562 64.7532 83.7702 64.8517 83.5338L62.2142 82.4351ZM62.432 82.1029C62.4805 82.0533 62.5486 81.9933 62.6369 81.9365C62.7218 81.8819 62.7938 81.8507 62.8291 81.8366L63.8901 84.4894C64.0816 84.4129 64.284 84.2954 64.4739 84.1013L62.432 82.1029ZM62.816 81.8419C62.8446 81.8301 62.904 81.8074 62.9846 81.7891C63.0695 81.7699 63.1556 81.7605 63.2394 81.7605V84.6176C63.5201 84.6176 63.7437 84.5497 63.9032 84.4841L62.816 81.8419ZM63.2394 81.7605H58.5528V84.6176H63.2394V81.7605ZM57.1242 83.189V99.7587H59.9813V83.189H57.1242ZM57.1378 99.5621L57.1043 99.8034L59.9342 100.197L59.9678 99.9553L57.1378 99.5621ZM38.5775 30.3673C38.7683 24.8267 43.5597 20.1911 49.6233 20.0059L49.5361 17.1501C42.1059 17.3771 35.9693 23.0885 35.7221 30.269L38.5775 30.3673ZM38.7372 32.5317C38.6057 31.8172 38.5523 31.0914 38.5775 30.3679L35.7221 30.2685C35.6897 31.1985 35.7583 32.131 35.9273 33.049L38.7372 32.5317ZM39.3589 34.6183C39.077 33.9377 38.8673 33.2406 38.7373 32.5324L35.9271 33.0483C36.0956 33.9661 36.365 34.8564 36.7192 35.7116L39.3589 34.6183ZM40.4253 36.5618C39.9975 35.9464 39.6397 35.2963 39.3589 34.6184L36.7192 35.7116C37.0814 36.5861 37.5392 37.4157 38.0792 38.1926L40.4253 36.5618ZM41.8853 38.2568C41.337 37.7379 40.8495 37.1717 40.425 36.5615L38.0794 38.1929C38.617 38.9658 39.2329 39.6805 39.9216 40.3322L41.8853 38.2568ZM43.6907 39.6455C43.0356 39.2372 42.4312 38.7745 41.8866 38.2579L39.9204 40.331C40.6129 40.9877 41.3714 41.5667 42.1797 42.0704L43.6907 39.6455ZM45.7743 40.6682C45.0409 40.3941 44.3444 40.053 43.691 39.6456L42.1795 42.0702C42.9993 42.5813 43.8677 43.0058 44.7742 43.3445L45.7743 40.6682ZM48.0359 41.2685C47.2614 41.1425 46.5066 40.9409 45.7729 40.6676L44.7757 43.3451C45.68 43.6819 46.615 43.9321 47.5771 44.0886L48.0359 41.2685ZM50.3764 41.4228C49.5931 41.4471 48.8089 41.3956 48.0381 41.2689L47.5749 44.0882C48.529 44.245 49.498 44.3085 50.465 44.2785L50.3764 41.4228ZM61.4228 31.0602C61.2368 36.6026 56.4437 41.2366 50.3769 41.4228L50.4645 44.2786C57.8954 44.0506 64.0371 38.3423 64.2784 31.1561L61.4228 31.0602ZM61.263 28.8983C61.3938 29.6112 61.4472 30.3368 61.4228 31.0601L64.2784 31.1563C64.3096 30.2286 64.2411 29.2979 64.0733 28.3829L61.263 28.8983ZM60.6419 26.8053C60.9249 27.4805 61.1314 28.1803 61.263 28.8981L64.0733 28.3831C63.9054 27.4666 63.6407 26.5689 63.2769 25.7009L60.6419 26.8053ZM59.5794 24.8672C60.0018 25.4734 60.3559 26.1243 60.6422 26.8062L63.2765 25.7C62.916 24.8414 62.4662 24.0126 61.9237 23.2339L59.5794 24.8672ZM58.1104 23.1657C58.6624 23.6867 59.1541 24.2554 59.5787 24.8661L61.9245 23.235C61.3842 22.4579 60.7627 21.7402 60.0717 21.088L58.1104 23.1657ZM56.309 21.783C56.9594 22.1874 57.5636 22.6515 58.1125 23.1676L60.0696 21.086C59.3814 20.4389 58.6266 19.8596 57.8174 19.3566L56.309 21.783ZM54.233 20.7619C54.9608 21.0338 55.6556 21.3759 56.3077 21.7822L57.8187 19.3574C57.0044 18.8499 56.1383 18.4236 55.2329 18.0854L54.233 20.7619ZM51.9701 20.1601C52.7441 20.2861 53.5013 20.4882 54.2325 20.7617L55.2334 18.0856C54.3285 17.7472 53.39 17.4965 52.4294 17.3401L51.9701 20.1601ZM49.6239 20.0059C50.4083 19.9816 51.1954 20.0335 51.9693 20.1599L52.4301 17.3402C51.4752 17.1842 50.5042 17.1201 49.5355 17.1501L49.6239 20.0059ZM49.6531 20.5485C44.1271 20.7175 39.5103 24.9834 39.325 30.3796L42.1805 30.4776C42.3094 26.7221 45.5804 23.5315 49.7405 23.4043L49.6531 20.5485ZM51.8077 20.6892C51.1037 20.5774 50.3809 20.5251 49.651 20.5485L49.7425 23.4042C50.2761 23.3871 50.8177 23.425 51.3596 23.511L51.8077 20.6892ZM53.9008 21.2451C53.2245 20.9937 52.53 20.8102 51.8197 20.6912L51.3476 23.5091C51.8841 23.599 52.4032 23.7366 52.9055 23.9232L53.9008 21.2451ZM55.8367 22.1981C55.2205 21.812 54.5744 21.4982 53.9056 21.2469L52.9007 23.9215C53.4026 24.11 53.8757 24.341 54.3199 24.6193L55.8367 22.1981ZM57.5208 23.492C57.0077 23.009 56.4435 22.5724 55.8284 22.1929L54.3282 24.6245C54.7736 24.8993 55.1851 25.2172 55.5627 25.5726L57.5208 23.492ZM58.9106 25.1012C58.5039 24.5158 58.0401 23.9823 57.5225 23.4936L55.561 25.571C55.942 25.9307 56.2752 26.3156 56.5642 26.7314L58.9106 25.1012ZM59.9241 26.9505C59.6541 26.3083 59.3183 25.6865 58.9095 25.0996L56.5652 26.7329C56.852 27.1445 57.0929 27.5884 57.2902 28.0578L59.9241 26.9505ZM60.5214 28.9672C60.3969 28.2754 60.1972 27.603 59.9249 26.9525L57.2894 28.0558C57.4824 28.5169 57.6223 28.9893 57.7095 29.4735L60.5214 28.9672ZM60.6748 31.0503C60.6994 30.353 60.6503 29.6563 60.5197 28.9578L57.7112 29.4829C57.802 29.9687 57.8369 30.4554 57.8195 30.9498L60.6748 31.0503ZM50.3474 40.8806C55.871 40.7111 60.4948 36.4516 60.6749 31.0476L57.8194 30.9525C57.6941 34.7102 54.4212 37.8971 50.2598 38.0248L50.3474 40.8806ZM48.1932 40.738C48.8999 40.8517 49.6188 40.9034 50.3483 40.8806L50.2589 38.0249C49.724 38.0416 49.1873 38.0041 48.6471 37.9172L48.1932 40.738ZM46.1034 40.184C46.779 40.4351 47.4703 40.6187 48.1876 40.7371L48.6528 37.9181C48.1154 37.8294 47.6018 37.6928 47.0988 37.5059L46.1034 40.184ZM44.1639 39.2315C44.78 39.617 45.4265 39.931 46.101 40.1831L47.1012 37.5068C46.5962 37.3181 46.1236 37.0874 45.6793 36.8093L44.1639 39.2315ZM42.4728 37.9302C42.9942 38.4274 43.5621 38.8594 44.1702 39.2354L45.6729 36.8054C45.2215 36.5263 44.8129 36.2138 44.4445 35.8625L42.4728 37.9302ZM41.0944 36.3285C41.497 36.9068 41.9553 37.4427 42.479 37.9361L44.4383 35.8566C44.0624 35.5025 43.7325 35.1173 43.4394 34.6962L41.0944 36.3285ZM40.0766 34.472C40.3477 35.1305 40.6916 35.7487 41.0937 36.3275L43.4401 34.6972C43.1466 34.2748 42.9052 33.8375 42.7187 33.3844L40.0766 34.472ZM39.4801 32.4733C39.6091 33.1576 39.8072 33.8244 40.0787 34.477L42.7166 33.3794C42.5218 32.9112 42.3803 32.435 42.2878 31.9442L39.4801 32.4733ZM39.3251 30.3784C39.3003 31.0831 39.3559 31.7793 39.4777 32.4604L42.2902 31.9572C42.2013 31.4603 42.1633 30.9667 42.1804 30.4788L39.3251 30.3784Z" fill="black" mask="url(#path-1-inside-1_60_173)"/>
</svg>
